Orbitron-Black-Quadratic.ufo
<glyph name="numbersign" format="2">
  <advance width="797"/>
  <unicode hex="0023"/>
  <outline>
    <contour>
      <point x="750" y="570" type="line"/>
      <point x="683" y="570" type="line"/>
      <point x="734" y="720" type="line"/>
      <point x="577" y="720" type="line"/>
      <point x="529" y="570" type="line"/>
      <point x="391" y="570" type="line"/>
      <point x="442" y="720" type="line"/>
      <point x="284" y="720" type="line"/>
      <point x="273.55223880597015" y="686.4179104477612"/>
      <point x="247.94029850746267" y="604.3283582089553"/>
      <point x="236" y="570" type="qcurve"/>
      <point x="60" y="570" type="line"/>
      <point x="60" y="417" type="line"/>
      <point x="187" y="417" type="line"/>
      <point x="153" y="311" type="line"/>
      <point x="32" y="311" type="line"/>
      <point x="32" y="158" type="line"/>
      <point x="107" y="158" type="line"/>
      <point x="60" y="0" type="line"/>
      <point x="215" y="0" type="line"/>
      <point x="225.44776119402985" y="35.82089552238806"/>
      <point x="247.80597014925374" y="122.17910447761194"/>
      <point x="259" y="158" type="qcurve"/>
      <point x="399" y="158" type="line"/>
      <point x="351" y="0" type="line"/>
      <point x="506" y="0" type="line"/>
      <point x="517.1940298507462" y="35.82089552238806"/>
      <point x="539.8059701492538" y="122.17910447761194"/>
      <point x="551" y="158" type="qcurve"/>
      <point x="722" y="158" type="line"/>
      <point x="722" y="311" type="line"/>
      <point x="601" y="311" type="line"/>
      <point x="635" y="417" type="line"/>
      <point x="750" y="417" type="line"/>
    </contour>
    <contour>
      <point x="309" y="311" type="line"/>
      <point x="343" y="417" type="line"/>
      <point x="479" y="417" type="line"/>
      <point x="445" y="311" type="line"/>
    </contour>
  </outline>
</glyph>
<glyph name="dollar" format="2">
  <advance width="788"/>
  <unicode hex="0024"/>
  <outline>
    <contour>
      <point x="740" y="575" type="line" smooth="yes"/>
      <point x="740.0" y="634.7014925373135"/>
      <point x="654.7014925373135" y="720.0"/>
      <point x="595" y="720" type="qcurve" smooth="yes"/>
      <point x="464" y="720" type="line"/>
      <point x="464" y="818" type="line"/>
      <point x="310" y="818" type="line"/>
      <point x="310" y="720" type="line"/>
      <point x="179" y="720" type="line" smooth="yes"/>
      <point x="119.29850746268657" y="720.0"/>
      <point x="34.0" y="634.7014925373135"/>
      <point x="34" y="575" type="qcurve" smooth="yes"/>
      <point x="34" y="425" type="line" smooth="yes"/>
      <point x="34.0" y="365.2985074626866"/>
      <point x="119.29850746268657" y="280.0"/>
      <point x="179" y="280" type="qcurve" smooth="yes"/>
      <point x="310" y="280" type="line"/>
      <point x="310" y="153" type="line"/>
      <point x="187" y="153" type="line"/>
      <point x="187" y="211" type="line"/>
      <point x="34" y="211" type="line"/>
      <point x="34" y="145" type="line" smooth="yes"/>
      <point x="34.0" y="86.044776119403"/>
      <point x="119.29850746268657" y="0.0"/>
      <point x="179" y="0" type="qcurve" smooth="yes"/>
      <point x="310" y="0" type="line"/>
      <point x="310" y="-98" type="line"/>
      <point x="464" y="-98" type="line"/>
      <point x="464" y="0" type="line"/>
      <point x="595" y="0" type="line" smooth="yes"/>
      <point x="654.7014925373135" y="0.0"/>
      <point x="740.0" y="86.044776119403"/>
      <point x="740" y="145" type="qcurve" smooth="yes"/>
      <point x="740" y="287" type="line" smooth="yes"/>
      <point x="740.0" y="346.7014925373134"/>
      <point x="654.7014925373135" y="433.0"/>
      <point x="595" y="433" type="qcurve" smooth="yes"/>
      <point x="464" y="433" type="line"/>
      <point x="464" y="567" type="line"/>
      <point x="587" y="567" type="line"/>
      <point x="587" y="509" type="line"/>
      <point x="740" y="509" type="line"/>
    </contour>
    <contour>
      <point x="310" y="433" type="line"/>
      <point x="187" y="433" type="line"/>
      <point x="187" y="567" type="line"/>
      <point x="310" y="567" type="line"/>
    </contour>
    <contour>
      <point x="464" y="280" type="line"/>
      <point x="587" y="280" type="line"/>
      <point x="587" y="153" type="line"/>
      <point x="464" y="153" type="line"/>
    </contour>
  </outline>
</glyph>
<glyph name="percent" format="2">
  <advance width="966"/>
  <unicode hex="0025"/>
  <outline>
    <contour>
      <point x="790" y="719" type="line"/>
      <point x="134" y="157" type="line"/>
      <point x="134" y="0" type="line"/>
      <point x="185" y="0" type="line"/>
      <point x="841" y="563" type="line"/>
      <point x="841" y="719" type="line"/>
    </contour>
    <contour>
      <point x="184" y="712" type="line" smooth="yes"/>
      <point x="124.29850746268657" y="712.0"/>
      <point x="48.0" y="636.7014925373135"/>
      <point x="48" y="577" type="qcurve" smooth="yes"/>
      <point x="48" y="505" type="line" smooth="yes"/>
      <point x="48.0" y="445.2985074626866"/>
      <point x="124.29850746268657" y="369.0"/>
      <point x="184" y="369" type="qcurve" smooth="yes"/>
      <point x="265" y="369" type="line" smooth="yes"/>
      <point x="324.7014925373134" y="369.0"/>
      <point x="401.0" y="445.2985074626866"/>
      <point x="401" y="505" type="qcurve" smooth="yes"/>
      <point x="401" y="577" type="line" smooth="yes"/>
      <point x="401.0" y="636.7014925373135"/>
      <point x="324.7014925373134" y="712.0"/>
      <point x="265" y="712" type="qcurve" smooth="yes"/>
    </contour>
    <contour>
      <point x="692" y="352" type="line" smooth="yes"/>
      <point x="633.044776119403" y="352.0"/>
      <point x="557.0" y="276.7014925373134"/>
      <point x="557" y="217" type="qcurve" smooth="yes"/>
      <point x="557" y="145" type="line" smooth="yes"/>
      <point x="557.0" y="85.29850746268657"/>
      <point x="633.044776119403" y="9.0"/>
      <point x="692" y="9" type="qcurve" smooth="yes"/>
      <point x="773" y="9" type="line" smooth="yes"/>
      <point x="832.7014925373135" y="9.0"/>
      <point x="909.0" y="85.29850746268657"/>
      <point x="909" y="145" type="qcurve" smooth="yes"/>
      <point x="909" y="217" type="line" smooth="yes"/>
      <point x="909.0" y="276.7014925373134"/>
      <point x="832.7014925373135" y="352.0"/>
      <point x="773" y="352" type="qcurve" smooth="yes"/>
    </contour>
    <contour>
      <point x="682" y="227" type="line"/>
      <point x="784" y="227" type="line"/>
      <point x="784" y="134" type="line"/>
      <point x="682" y="134" type="line"/>
    </contour>
    <contour>
      <point x="173" y="587" type="line"/>
      <point x="275" y="587" type="line"/>
      <point x="275" y="495" type="line"/>
      <point x="173" y="495" type="line"/>
    </contour>
  </outline>
</glyph>
<glyph name="ampersand" format="2">
  <advance width="938"/>
  <unicode hex="0026"/>
  <outline>
    <contour>
      <point x="759" y="208" type="line"/>
      <point x="759" y="369" type="line"/>
      <point x="606" y="369" type="line"/>
      <point x="606" y="274" type="line"/>
      <point x="242" y="457" type="line"/>
      <point x="242" y="565" type="line"/>
      <point x="579" y="565" type="line"/>
      <point x="579" y="512" type="line"/>
      <point x="732" y="512" type="line"/>
      <point x="732" y="600" type="line"/>
      <point x="723.044776119403" y="650.7462686567164"/>
      <point x="639.9850746268656" y="719.0"/>
      <point x="587" y="719" type="qcurve" smooth="yes"/>
      <point x="234" y="719" type="line" smooth="yes"/>
      <point x="175.044776119403" y="719.0"/>
      <point x="89.0" y="633.7014925373135"/>
      <point x="89" y="574" type="qcurve" smooth="yes"/>
      <point x="89" y="467" type="line" smooth="yes"/>
      <point x="89.0" y="452.82089552238807"/>
      <point x="90.77611940298507" y="426.6865671641791"/>
      <point x="96" y="414" type="qcurve"/>
      <point x="73.61194029850746" y="399.07462686567163"/>
      <point x="53.0" y="349.4029850746269"/>
      <point x="53" y="330" type="qcurve" smooth="yes"/>
      <point x="53" y="145" type="line" smooth="yes"/>
      <point x="53.0" y="86.044776119403"/>
      <point x="138.2985074626866" y="0.0"/>
      <point x="198" y="0" type="qcurve" smooth="yes"/>
      <point x="614" y="0" type="line" smooth="yes"/>
      <point x="649.820895522388" y="0.0"/>
      <point x="713.8507462686567" y="34.38805970149254"/>
      <point x="734" y="62" type="qcurve"/>
      <point x="874" y="-18" type="line"/>
      <point x="874" y="140" type="line"/>
    </contour>
    <contour>
      <point x="457.3731343283582" y="191.56716417910448"/>
      <point x="509.8805970149254" y="166.43283582089552"/>
      <point x="536" y="153" type="qcurve"/>
      <point x="206" y="153" type="line"/>
      <point x="206" y="319" type="line"/>
      <point x="260.4776119402985" y="292.13432835820896"/>
      <point x="379.01492537313436" y="231.86567164179104"/>
      <point x="432" y="205" type="qcurve" smooth="yes"/>
    </contour>
  </outline>
</glyph>
<glyph name="parenleft" format="2">
  <advance width="294"/>
  <unicode hex="0028"/>
  <outline>
    <contour>
      <point x="263" y="567" type="line"/>
      <point x="263" y="720" type="line"/>
      <point x="197" y="720" type="line" smooth="yes"/>
      <point x="137.2985074626866" y="720.0"/>
      <point x="52.0" y="634.7014925373135"/>
      <point x="52" y="575" type="qcurve" smooth="yes"/>
      <point x="52" y="145" type="line" smooth="yes"/>
      <point x="52.0" y="86.044776119403"/>
      <point x="137.2985074626866" y="0.0"/>
      <point x="197" y="0" type="qcurve" smooth="yes"/>
      <point x="263" y="0" type="line"/>
      <point x="263" y="153" type="line"/>
      <point x="205" y="153" type="line"/>
      <point x="205" y="567" type="line"/>
    </contour>
  </outline>
</glyph>
<glyph name="parenright" format="2">
  <advance width="297"/>
  <unicode hex="0029"/>
  <outline>
    <contour>
      <point x="56" y="0" type="line"/>
      <point x="123" y="0" type="line" smooth="yes"/>
      <point x="181.955223880597" y="0.0"/>
      <point x="268.0" y="86.044776119403"/>
      <point x="268" y="145" type="qcurve" smooth="yes"/>
      <point x="268" y="575" type="line" smooth="yes"/>
      <point x="268.0" y="634.7014925373135"/>
      <point x="181.955223880597" y="720.0"/>
      <point x="123" y="720" type="qcurve" smooth="yes"/>
      <point x="56" y="720" type="line"/>
      <point x="56" y="567" type="line"/>
      <point x="114" y="567" type="line"/>
      <point x="114" y="153" type="line"/>
      <point x="56" y="153" type="line"/>
    </contour>
  </outline>
</glyph>
<glyph name="asterisk" format="2">
  <advance width="516"/>
  <unicode hex="002A"/>
  <outline>
    <contour>
      <point x="445" y="627" type="line"/>
      <point x="383.80597014925377" y="606.1044776119403"/>
      <point x="345.44776119402985" y="592.9850746268656"/>
      <point x="335" y="590" type="qcurve"/>
      <point x="335" y="706" type="line"/>
      <point x="181" y="706" type="line"/>
      <point x="181" y="590" type="line"/>
      <point x="72" y="627" type="line"/>
      <point x="25" y="479" type="line"/>
      <point x="135" y="444" type="line"/>
      <point x="66" y="351" type="line"/>
      <point x="191" y="261" type="line"/>
      <point x="257" y="354" type="line"/>
      <point x="328" y="261" type="line"/>
      <point x="451" y="351" type="line"/>
      <point x="382" y="444" type="line"/>
      <point x="492" y="479" type="line"/>
    </contour>
  </outline>
</glyph>
<glyph name="comma" format="2">
  <advance width="243"/>
  <unicode hex="002C"/>
  <outline>
    <contour>
      <point x="54" y="142" type="line"/>
      <point x="54" y="-133" type="line"/>
      <point x="118.92537313432835" y="-121.80597014925374"/>
      <point x="207.0" y="-38.4776119402985"/>
      <point x="207" y="16" type="qcurve" smooth="yes"/>
      <point x="207" y="142" type="line"/>
    </contour>
  </outline>
</glyph>
<glyph name="zero" format="2">
  <advance width="834"/>
  <unicode hex="0030"/>
  <outline>
    <contour>
      <point x="203" y="720" type="line" smooth="yes"/>
      <point x="143.2985074626866" y="720.0"/>
      <point x="57.0" y="630.7014925373135"/>
      <point x="57" y="571" type="qcurve" smooth="yes"/>
      <point x="57" y="155" type="line" smooth="yes"/>
      <point x="57.0" y="96.044776119403"/>
      <point x="143.2985074626866" y="0.0"/>
      <point x="203" y="0" type="qcurve" smooth="yes"/>
      <point x="618" y="0" type="line" smooth="yes"/>
      <point x="677.7014925373135" y="0.0"/>
      <point x="764.0" y="96.044776119403"/>
      <point x="764" y="155" type="qcurve" smooth="yes"/>
      <point x="764" y="571" type="line" smooth="yes"/>
      <point x="764.0" y="630.7014925373135"/>
      <point x="677.7014925373135" y="720.0"/>
      <point x="618" y="720" type="qcurve" smooth="yes"/>
    </contour>
    <contour>
      <point x="292" y="163" type="line"/>
      <point x="611" y="431" type="line"/>
      <point x="611" y="163" type="line"/>
    </contour>
    <contour>
      <point x="529" y="563" type="line"/>
      <point x="210" y="295" type="line"/>
      <point x="210" y="563" type="line"/>
    </contour>
  </outline>
</glyph>
<glyph name="two" format="2">
  <advance width="830"/>
  <unicode hex="0032"/>
  <outline>
    <contour>
      <point x="203" y="720" type="line" smooth="yes"/>
      <point x="143.2985074626866" y="720.0"/>
      <point x="57.0" y="634.7014925373135"/>
      <point x="57" y="575" type="qcurve" smooth="yes"/>
      <point x="57" y="509" type="line"/>
      <point x="210" y="509" type="line"/>
      <point x="210" y="567" type="line"/>
      <point x="611" y="567" type="line"/>
      <point x="611" y="424" type="line"/>
      <point x="203" y="424" type="line" smooth="yes"/>
      <point x="143.2985074626866" y="424.0"/>
      <point x="57.0" y="338.7014925373134"/>
      <point x="57" y="279" type="qcurve" smooth="yes"/>
      <point x="57" y="0" type="line"/>
      <point x="764" y="0" type="line"/>
      <point x="764" y="153" type="line"/>
      <point x="210" y="153" type="line"/>
      <point x="210" y="270" type="line"/>
      <point x="618" y="270" type="line" smooth="yes"/>
      <point x="677.7014925373135" y="270.0"/>
      <point x="764.0" y="356.2985074626866"/>
      <point x="764" y="416" type="qcurve" smooth="yes"/>
      <point x="764" y="575" type="line" smooth="yes"/>
      <point x="764.0" y="634.7014925373135"/>
      <point x="677.7014925373135" y="720.0"/>
      <point x="618" y="720" type="qcurve" smooth="yes"/>
    </contour>
  </outline>
</glyph>
<glyph name="three" format="2">
  <advance width="826"/>
  <unicode hex="0033"/>
  <outline>
    <contour>
      <point x="733" y="575" type="line" smooth="yes"/>
      <point x="733.0" y="634.7014925373135"/>
      <point x="647.7014925373135" y="720.0"/>
      <point x="588" y="720" type="qcurve" smooth="yes"/>
      <point x="199" y="720" type="line" smooth="yes"/>
      <point x="139.2985074626866" y="720.0"/>
      <point x="53.0" y="634.7014925373135"/>
      <point x="53" y="575" type="qcurve" smooth="yes"/>
      <point x="53" y="511" type="line"/>
      <point x="206" y="511" type="line"/>
      <point x="206" y="567" type="line"/>
      <point x="580" y="567" type="line"/>
      <point x="580" y="439" type="line"/>
      <point x="171" y="439" type="line"/>
      <point x="171" y="286" type="line"/>
      <point x="607" y="286" type="line"/>
      <point x="607" y="153" type="line"/>
      <point x="206" y="153" type="line"/>
      <point x="206" y="201" type="line"/>
      <point x="53" y="201" type="line"/>
      <point x="53" y="145" type="line" smooth="yes"/>
      <point x="53.0" y="86.044776119403"/>
      <point x="139.2985074626866" y="0.0"/>
      <point x="199" y="0" type="qcurve" smooth="yes"/>
      <point x="615" y="0" type="line" smooth="yes"/>
      <point x="674.7014925373135" y="0.0"/>
      <point x="760.0" y="86.044776119403"/>
      <point x="760" y="145" type="qcurve" smooth="yes"/>
      <point x="760" y="294" type="line" smooth="yes"/>
      <point x="760.0" y="320.1194029850746"/>
      <point x="741.9253731343283" y="367.089552238806"/>
      <point x="727" y="385" type="qcurve"/>
      <point x="729.9850746268656" y="395.44776119402985"/>
      <point x="733.0" y="419.8059701492537"/>
      <point x="733" y="431" type="qcurve" smooth="yes"/>
    </contour>
  </outline>
</glyph>
<glyph name="six" format="2">
  <advance width="820"/>
  <unicode hex="0036"/>
  <outline>
    <contour>
      <point x="655" y="567" type="line"/>
      <point x="655" y="720" type="line"/>
      <point x="203" y="720" type="line" smooth="yes"/>
      <point x="143.2985074626866" y="720.0"/>
      <point x="57.0" y="634.7014925373135"/>
      <point x="57" y="575" type="qcurve" smooth="yes"/>
      <point x="57" y="145" type="line" smooth="yes"/>
      <point x="57.0" y="86.044776119403"/>
      <point x="143.2985074626866" y="0.0"/>
      <point x="203" y="0" type="qcurve" smooth="yes"/>
      <point x="618" y="0" type="line" smooth="yes"/>
      <point x="677.7014925373135" y="0.0"/>
      <point x="764.0" y="86.044776119403"/>
      <point x="764" y="145" type="qcurve" smooth="yes"/>
      <point x="764" y="297" type="line" smooth="yes"/>
      <point x="764.0" y="356.7014925373134"/>
      <point x="677.7014925373135" y="442.0"/>
      <point x="618" y="442" type="qcurve" smooth="yes"/>
      <point x="210" y="442" type="line"/>
      <point x="210" y="567" type="line"/>
    </contour>
    <contour>
      <point x="210" y="288" type="line"/>
      <point x="611" y="288" type="line"/>
      <point x="611" y="153" type="line"/>
      <point x="210" y="153" type="line"/>
    </contour>
  </outline>
</glyph>
<glyph name="seven" format="2">
  <advance width="660"/>
  <unicode hex="0037"/>
  <outline>
    <contour>
      <point x="3" y="721" type="line"/>
      <point x="3" y="568" type="line"/>
      <point x="448" y="568" type="line"/>
      <point x="448" y="0" type="line"/>
      <point x="601" y="0" type="line"/>
      <point x="601" y="576" type="line" smooth="yes"/>
      <point x="601.0" y="635.7014925373135"/>
      <point x="515.7014925373135" y="721.0"/>
      <point x="456" y="721" type="qcurve" smooth="yes"/>
    </contour>
  </outline>
</glyph>
<glyph name="eight" format="2">
  <advance width="834"/>
  <unicode hex="0038"/>
  <outline>
    <contour>
      <point x="764" y="601" type="line"/>
      <point x="755.044776119403" y="651.7462686567164"/>
      <point x="671.7313432835821" y="720.0"/>
      <point x="618" y="720" type="qcurve" smooth="yes"/>
      <point x="203" y="720" type="line" smooth="yes"/>
      <point x="143.2985074626866" y="720.0"/>
      <point x="57.0" y="634.7014925373135"/>
      <point x="57" y="575" type="qcurve" smooth="yes"/>
      <point x="57" y="434" type="line" smooth="yes"/>
      <point x="57.0" y="416.089552238806"/>
      <point x="66.53731343283582" y="380.67164179104475"/>
      <point x="74" y="365" type="qcurve"/>
      <point x="66.53731343283582" y="349.32835820895525"/>
      <point x="57.0" y="314.1641791044776"/>
      <point x="57" y="297" type="qcurve" smooth="yes"/>
      <point x="57" y="145" type="line" smooth="yes"/>
      <point x="57.0" y="86.044776119403"/>
      <point x="143.2985074626866" y="0.0"/>
      <point x="203" y="0" type="qcurve" smooth="yes"/>
      <point x="618" y="0" type="line" smooth="yes"/>
      <point x="677.7014925373135" y="0.0"/>
      <point x="764.0" y="86.044776119403"/>
      <point x="764" y="145" type="qcurve" smooth="yes"/>
      <point x="764" y="297" type="line" smooth="yes"/>
      <point x="764.0" y="314.910447761194"/>
      <point x="755.955223880597" y="348.5820895522388"/>
      <point x="747" y="365" type="qcurve"/>
      <point x="755.2089552238806" y="380.67164179104475"/>
      <point x="764.0" y="417.5820895522388"/>
      <point x="764" y="434" type="qcurve" smooth="yes"/>
    </contour>
    <contour>
      <point x="210" y="288" type="line"/>
      <point x="611" y="288" type="line"/>
      <point x="611" y="153" type="line"/>
      <point x="210" y="153" type="line"/>
    </contour>
    <contour>
      <point x="210" y="566" type="line"/>
      <point x="611" y="566" type="line"/>
      <point x="611" y="432" type="line"/>
      <point x="210" y="432" type="line"/>
    </contour>
  </outline>
</glyph>
<glyph name="nine" format="2">
  <advance width="828"/>
  <unicode hex="0039"/>
  <outline>
    <contour>
      <point x="616" y="0" type="line" smooth="yes"/>
      <point x="675.7014925373135" y="0.0"/>
      <point x="761.0" y="86.044776119403"/>
      <point x="761" y="145" type="qcurve" smooth="yes"/>
      <point x="761" y="575" type="line" smooth="yes"/>
      <point x="761.0" y="634.7014925373135"/>
      <point x="675.7014925373135" y="720.0"/>
      <point x="616" y="720" type="qcurve" smooth="yes"/>
      <point x="200" y="720" type="line" smooth="yes"/>
      <point x="140.2985074626866" y="720.0"/>
      <point x="54.0" y="634.7014925373135"/>
      <point x="54" y="575" type="qcurve" smooth="yes"/>
      <point x="54" y="427" type="line" smooth="yes"/>
      <point x="54.0" y="367.2985074626866"/>
      <point x="140.2985074626866" y="281.0"/>
      <point x="200" y="281" type="qcurve" smooth="yes"/>
      <point x="608" y="281" type="line"/>
      <point x="608" y="153" type="line"/>
      <point x="51" y="153" type="line"/>
      <point x="62.19402985074627" y="88.82089552238807"/>
      <point x="146.26865671641792" y="0.0"/>
      <point x="200" y="0" type="qcurve" smooth="yes"/>
    </contour>
    <contour>
      <point x="208" y="435" type="line"/>
      <point x="208" y="567" type="line"/>
      <point x="608" y="567" type="line"/>
      <point x="608" y="435" type="line"/>
    </contour>
  </outline>
</glyph>
<glyph name="semicolon" format="2">
  <advance width="266"/>
  <unicode hex="003B"/>
  <outline>
    <contour>
      <point x="205" y="580" type="line"/>
      <point x="51" y="580" type="line"/>
      <point x="51" y="426" type="line"/>
      <point x="205" y="426" type="line"/>
    </contour>
    <contour>
      <point x="52" y="142" type="line"/>
      <point x="52" y="-133" type="line"/>
      <point x="116.92537313432835" y="-121.80597014925374"/>
      <point x="205.0" y="-38.4776119402985"/>
      <point x="205" y="16" type="qcurve" smooth="yes"/>
      <point x="205" y="142" type="line"/>
    </contour>
  </outline>
</glyph>
<glyph name="greater" format="2">
  <advance width="475"/>
  <unicode hex="003E"/>
  <outline>
    <contour>
      <point x="59" y="-19" type="line"/>
      <point x="487" y="229" type="line"/>
      <point x="487" y="358" type="line"/>
      <point x="59" y="605" type="line"/>
      <point x="59" y="428" type="line"/>
      <point x="82.88059701492537" y="415.3134328358209"/>
      <point x="138.62686567164178" y="380.17910447761193"/>
      <point x="164" y="366" type="qcurve" smooth="yes"/>
      <point x="292" y="294" type="line"/>
      <point x="59" y="159" type="line"/>
    </contour>
  </outline>
</glyph>
<glyph name="question" format="2">
  <advance width="678"/>
  <unicode hex="003F"/>
  <outline>
    <contour>
      <point x="31" y="720" type="line"/>
      <point x="31" y="567" type="line"/>
      <point x="500" y="567" type="line"/>
      <point x="500" y="417" type="line"/>
      <point x="273" y="417" type="line" smooth="yes"/>
      <point x="213.2985074626866" y="417.0"/>
      <point x="128.0" y="331.7014925373134"/>
      <point x="128" y="272" type="qcurve" smooth="yes"/>
      <point x="128" y="194" type="line"/>
      <point x="282" y="194" type="line"/>
      <point x="282" y="263" type="line"/>
      <point x="507" y="263" type="line" smooth="yes"/>
      <point x="567.4477611940298" y="263.0"/>
      <point x="653.0" y="349.2985074626866"/>
      <point x="653" y="409" type="qcurve" smooth="yes"/>
      <point x="653" y="575" type="line" smooth="yes"/>
      <point x="653.0" y="634.7014925373135"/>
      <point x="567.4477611940298" y="720.0"/>
      <point x="507" y="720" type="qcurve" smooth="yes"/>
    </contour>
    <contour>
      <point x="282" y="0" type="line"/>
      <point x="282" y="153" type="line"/>
      <point x="128" y="153" type="line"/>
      <point x="128" y="0" type="line"/>
    </contour>
  </outline>
</glyph>
<glyph name="at" format="2">
  <advance width="831"/>
  <unicode hex="0040"/>
  <outline>
    <contour>
      <point x="380" y="519" type="line" smooth="yes"/>
      <point x="320.2985074626866" y="519.0"/>
      <point x="254.0" y="453.7014925373134"/>
      <point x="254" y="394" type="qcurve" smooth="yes"/>
      <point x="254" y="341" type="line" smooth="yes"/>
      <point x="254.0" y="280.55223880597015"/>
      <point x="320.2985074626866" y="216.0"/>
      <point x="380" y="216" type="qcurve" smooth="yes"/>
      <point x="764" y="216" type="line"/>
      <point x="764" y="575" type="line" smooth="yes"/>
      <point x="764.0" y="634.7014925373135"/>
      <point x="677.7014925373135" y="720.0"/>
      <point x="618" y="720" type="qcurve" smooth="yes"/>
      <point x="203" y="720" type="line" smooth="yes"/>
      <point x="143.2985074626866" y="720.0"/>
      <point x="57.0" y="634.7014925373135"/>
      <point x="57" y="575" type="qcurve" smooth="yes"/>
      <point x="57" y="145" type="line" smooth="yes"/>
      <point x="57.0" y="86.044776119403"/>
      <point x="143.2985074626866" y="0.0"/>
      <point x="203" y="0" type="qcurve" smooth="yes"/>
      <point x="764" y="0" type="line"/>
      <point x="764" y="153" type="line"/>
      <point x="210" y="153" type="line"/>
      <point x="210" y="567" type="line"/>
      <point x="611" y="567" type="line"/>
      <point x="611" y="331" type="line"/>
      <point x="567" y="331" type="line"/>
      <point x="567" y="394" type="line" smooth="yes"/>
      <point x="567.0" y="453.7014925373134"/>
      <point x="501.7014925373134" y="519.0"/>
      <point x="442" y="519" type="qcurve" smooth="yes"/>
    </contour>
    <contour>
      <point x="360" y="331" type="line"/>
      <point x="360" y="413" type="line"/>
      <point x="461" y="413" type="line"/>
      <point x="461" y="331" type="line"/>
    </contour>
  </outline>
</glyph>
<glyph name="B" format="2">
  <advance width="832"/>
  <unicode hex="0042"/>
  <outline>
    <contour>
      <point x="751" y="572" type="line" smooth="yes"/>
      <point x="751.0" y="633.1940298507462"/>
      <point x="663.4477611940298" y="720.0"/>
      <point x="603" y="720" type="qcurve" smooth="yes"/>
      <point x="59" y="720" type="line"/>
      <point x="59" y="0" type="line"/>
      <point x="630" y="0" type="line" smooth="yes"/>
      <point x="691.1940298507462" y="0.0"/>
      <point x="779.0" y="86.80597014925374"/>
      <point x="779" y="148" type="qcurve" smooth="yes"/>
      <point x="779" y="297" type="line" smooth="yes"/>
      <point x="779.0" y="322.3731343283582"/>
      <point x="758.9253731343283" y="372.34328358208955"/>
      <point x="744" y="391" type="qcurve"/>
      <point x="747.7313432835821" y="400.7014925373134"/>
      <point x="751.0" y="424.3134328358209"/>
      <point x="751" y="437" type="qcurve" smooth="yes"/>
    </contour>
    <contour>
      <point x="214" y="288" type="line"/>
      <point x="622" y="288" type="line"/>
      <point x="622" y="156" type="line"/>
      <point x="214" y="156" type="line"/>
    </contour>
    <contour>
      <point x="214" y="564" type="line"/>
      <point x="594" y="564" type="line"/>
      <point x="594" y="444" type="line"/>
      <point x="214" y="444" type="line"/>
    </contour>
  </outline>
</glyph>
<glyph name="C" format="2">
  <advance width="822"/>
  <unicode hex="0043"/>
  <outline>
    <contour>
      <point x="774" y="564" type="line"/>
      <point x="774" y="720" type="line"/>
      <point x="204" y="720" type="line" smooth="yes"/>
      <point x="142.80597014925374" y="720.0"/>
      <point x="56.0" y="633.1940298507462"/>
      <point x="56" y="572" type="qcurve" smooth="yes"/>
      <point x="56" y="148" type="line" smooth="yes"/>
      <point x="56.0" y="86.80597014925374"/>
      <point x="142.80597014925374" y="0.0"/>
      <point x="204" y="0" type="qcurve" smooth="yes"/>
      <point x="774" y="0" type="line"/>
      <point x="774" y="156" type="line"/>
      <point x="211" y="156" type="line"/>
      <point x="211" y="564" type="line"/>
    </contour>
  </outline>
</glyph>
<glyph name="D" format="2">
  <advance width="834"/>
  <unicode hex="0044"/>
  <outline>
    <contour>
      <point x="58" y="720" type="line"/>
      <point x="58" y="0" type="line"/>
      <point x="629" y="0" type="line" smooth="yes"/>
      <point x="690.1940298507462" y="0.0"/>
      <point x="778.0" y="86.80597014925374"/>
      <point x="778" y="148" type="qcurve" smooth="yes"/>
      <point x="778" y="572" type="line" smooth="yes"/>
      <point x="778.0" y="633.1940298507462"/>
      <point x="690.1940298507462" y="720.0"/>
      <point x="629" y="720" type="qcurve" smooth="yes"/>
    </contour>
    <contour>
      <point x="213" y="564" type="line"/>
      <point x="621" y="564" type="line"/>
      <point x="621" y="156" type="line"/>
      <point x="213" y="156" type="line"/>
    </contour>
  </outline>
</glyph>
<glyph name="G" format="2">
  <advance width="830"/>
  <unicode hex="0047"/>
  <outline>
    <contour>
      <point x="776" y="572" type="line" smooth="yes"/>
      <point x="776.0" y="633.1940298507462"/>
      <point x="688.1940298507462" y="720.0"/>
      <point x="627" y="720" type="qcurve" smooth="yes"/>
      <point x="204" y="720" type="line" smooth="yes"/>
      <point x="142.80597014925374" y="720.0"/>
      <point x="56.0" y="633.1940298507462"/>
      <point x="56" y="572" type="qcurve" smooth="yes"/>
      <point x="56" y="148" type="line" smooth="yes"/>
      <point x="56.0" y="86.80597014925374"/>
      <point x="142.80597014925374" y="0.0"/>
      <point x="204" y="0" type="qcurve" smooth="yes"/>
      <point x="627" y="0" type="line" smooth="yes"/>
      <point x="688.1940298507462" y="0.0"/>
      <point x="776.0" y="86.80597014925374"/>
      <point x="776" y="148" type="qcurve" smooth="yes"/>
      <point x="776" y="420" type="line"/>
      <point x="463" y="420" type="line"/>
      <point x="463" y="264" type="line"/>
      <point x="619" y="264" type="line"/>
      <point x="619" y="156" type="line"/>
      <point x="211" y="156" type="line"/>
      <point x="211" y="564" type="line"/>
      <point x="619" y="564" type="line"/>
      <point x="619" y="504" type="line"/>
      <point x="776" y="504" type="line"/>
    </contour>
  </outline>
</glyph>
<glyph name="J" format="2">
  <advance width="780"/>
  <unicode hex="004A"/>
  <outline>
    <contour>
      <point x="159" y="241" type="line"/>
      <point x="4" y="241" type="line"/>
      <point x="4" y="148" type="line" smooth="yes"/>
      <point x="4.0" y="86.80597014925374"/>
      <point x="90.80597014925374" y="0.0"/>
      <point x="152" y="0" type="qcurve" smooth="yes"/>
      <point x="576" y="0" type="line" smooth="yes"/>
      <point x="636.4477611940298" y="0.0"/>
      <point x="724.0" y="86.80597014925374"/>
      <point x="724" y="148" type="qcurve" smooth="yes"/>
      <point x="724" y="720" type="line"/>
      <point x="567" y="720" type="line"/>
      <point x="567" y="156" type="line"/>
      <point x="159" y="156" type="line"/>
    </contour>
  </outline>
</glyph>
<glyph name="K" format="2">
  <advance width="797"/>
  <unicode hex="004B"/>
  <outline>
    <contour>
      <point x="590" y="720" type="line"/>
      <point x="444" y="545" type="line" smooth="yes"/>
      <point x="421.6119402985075" y="518.1343283582089"/>
      <point x="376.3880597014925" y="464.1194029850746"/>
      <point x="354" y="438" type="qcurve"/>
      <point x="213" y="438" type="line"/>
      <point x="213" y="720" type="line"/>
      <point x="57" y="720" type="line"/>
      <point x="57" y="0" type="line"/>
      <point x="213" y="0" type="line"/>
      <point x="213" y="282" type="line"/>
      <point x="354" y="282" type="line"/>
      <point x="590" y="0" type="line"/>
      <point x="752" y="0" type="line"/>
      <point x="752" y="54" type="line"/>
      <point x="689.3134328358209" y="128.62686567164178"/>
      <point x="557.6865671641791" y="284.6268656716418"/>
      <point x="495" y="360" type="qcurve"/>
      <point x="752" y="666" type="line"/>
      <point x="752" y="720" type="line"/>
    </contour>
  </outline>
</glyph>
<glyph name="M" format="2">
  <advance width="928"/>
  <unicode hex="004D"/>
  <outline>
    <contour>
      <point x="460" y="429" type="line"/>
      <point x="216" y="720" type="line"/>
      <point x="56" y="720" type="line"/>
      <point x="56" y="0" type="line"/>
      <point x="211" y="0" type="line"/>
      <point x="211" y="482" type="line"/>
      <point x="460" y="187" type="line"/>
      <point x="519.7014925373135" y="257.14925373134326"/>
      <point x="647.5522388059702" y="411.35820895522386"/>
      <point x="708" y="483" type="qcurve"/>
      <point x="708" y="0" type="line"/>
      <point x="864" y="0" type="line"/>
      <point x="864" y="720" type="line"/>
      <point x="703" y="720" type="line"/>
    </contour>
  </outline>
</glyph>
<glyph name="P" format="2">
  <advance width="791"/>
  <unicode hex="0050"/>
  <outline>
    <contour>
      <point x="56" y="719" type="line"/>
      <point x="56" y="0" type="line"/>
      <point x="211" y="0" type="line"/>
      <point x="211" y="231" type="line"/>
      <point x="211.7462686567164" y="230.2537313432836"/>
      <point x="214.0" y="230.0"/>
      <point x="214" y="230" type="qcurve"/>
      <point x="214.0" y="232.98507462686567"/>
      <point x="212.49253731343285" y="236.0"/>
      <point x="211" y="236" type="qcurve"/>
      <point x="627" y="237" type="line" smooth="yes"/>
      <point x="688.1940298507462" y="237.0"/>
      <point x="776.0" y="324.55223880597015"/>
      <point x="776" y="385" type="qcurve" smooth="yes"/>
      <point x="776" y="571" type="line" smooth="yes"/>
      <point x="776.0" y="631.4477611940298"/>
      <point x="688.1940298507462" y="719.0"/>
      <point x="627" y="719" type="qcurve" smooth="yes"/>
    </contour>
    <contour>
      <point x="211" y="564" type="line"/>
      <point x="619" y="564" type="line"/>
      <point x="619" y="393" type="line"/>
      <point x="211" y="393" type="line"/>
    </contour>
  </outline>
</glyph>
<glyph name="R" format="2">
  <advance width="825"/>
  <unicode hex="0052"/>
  <outline>
    <contour>
      <point x="775" y="571" type="line" smooth="yes"/>
      <point x="775.0" y="631.4477611940298"/>
      <point x="687.1940298507462" y="719.0"/>
      <point x="626" y="719" type="qcurve" smooth="yes"/>
      <point x="55" y="719" type="line"/>
      <point x="55" y="0" type="line"/>
      <point x="210" y="0" type="line"/>
      <point x="210" y="231" type="line"/>
      <point x="210.7462686567164" y="230.2537313432836"/>
      <point x="213.0" y="230.0"/>
      <point x="213" y="230" type="qcurve"/>
      <point x="213.0" y="232.98507462686567"/>
      <point x="211.49253731343285" y="236.0"/>
      <point x="210" y="236" type="qcurve"/>
      <point x="416" y="237" type="line"/>
      <point x="615" y="0" type="line"/>
      <point x="775" y="0" type="line"/>
      <point x="775" y="53" type="line"/>
      <point x="737.6865671641791" y="97.77611940298507"/>
      <point x="657.0597014925373" y="192.22388059701493"/>
      <point x="619" y="237" type="qcurve"/>
      <point x="626" y="237" type="line" smooth="yes"/>
      <point x="687.1940298507462" y="237.0"/>
      <point x="775.0" y="324.55223880597015"/>
      <point x="775" y="385" type="qcurve" smooth="yes"/>
    </contour>
    <contour>
      <point x="210" y="564" type="line"/>
      <point x="618" y="564" type="line"/>
      <point x="618" y="393" type="line"/>
      <point x="210" y="393" type="line"/>
    </contour>
  </outline>
</glyph>
<glyph name="S" format="2">
  <advance width="822"/>
  <unicode hex="0053"/>
  <outline>
    <contour>
      <point x="771" y="572" type="line" smooth="yes"/>
      <point x="771.0" y="633.1940298507462"/>
      <point x="683.4477611940298" y="720.0"/>
      <point x="623" y="720" type="qcurve" smooth="yes"/>
      <point x="199" y="720" type="line" smooth="yes"/>
      <point x="137.80597014925374" y="720.0"/>
      <point x="51.0" y="633.1940298507462"/>
      <point x="51" y="572" type="qcurve" smooth="yes"/>
      <point x="51" y="430" type="line" smooth="yes"/>
      <point x="51.0" y="368.80597014925377"/>
      <point x="137.80597014925374" y="282.0"/>
      <point x="199" y="282" type="qcurve" smooth="yes"/>
      <point x="614" y="282" type="line"/>
      <point x="614" y="156" type="line"/>
      <point x="206" y="156" type="line"/>
      <point x="206" y="215" type="line"/>
      <point x="51" y="215" type="line"/>
      <point x="51" y="148" type="line" smooth="yes"/>
      <point x="51.0" y="86.80597014925374"/>
      <point x="137.80597014925374" y="0.0"/>
      <point x="199" y="0" type="qcurve" smooth="yes"/>
      <point x="623" y="0" type="line" smooth="yes"/>
      <point x="683.4477611940298" y="0.0"/>
      <point x="771.0" y="86.80597014925374"/>
      <point x="771" y="148" type="qcurve" smooth="yes"/>
      <point x="771" y="290" type="line" smooth="yes"/>
      <point x="771.0" y="351.19402985074623"/>
      <point x="683.4477611940298" y="438.0"/>
      <point x="623" y="438" type="qcurve" smooth="yes"/>
      <point x="206" y="438" type="line"/>
      <point x="206" y="564" type="line"/>
      <point x="614" y="564" type="line"/>
      <point x="614" y="505" type="line"/>
      <point x="771" y="505" type="line"/>
    </contour>
  </outline>
</glyph>
<glyph name="W" format="2">
  <advance width="1179"/>
  <unicode hex="0057"/>
  <outline>
    <contour>
      <point x="972" y="720" type="line"/>
      <point x="939.9104477611941" y="632.6865671641791"/>
      <point x="872.0895522388059" y="444.56716417910445"/>
      <point x="840" y="358" type="qcurve" smooth="yes"/>
      <point x="815" y="291" type="line"/>
      <point x="657" y="720" type="line"/>
      <point x="514" y="720" type="line"/>
      <point x="481.91044776119406" y="632.6865671641791"/>
      <point x="414.08955223880594" y="444.56716417910445"/>
      <point x="382" y="358" type="qcurve" smooth="yes"/>
      <point x="357" y="291" type="line"/>
      <point x="200" y="720" type="line"/>
      <point x="35" y="720" type="line"/>
      <point x="297" y="0" type="line"/>
      <point x="416" y="0" type="line"/>
      <point x="439.88059701492534" y="67.91044776119402"/>
      <point x="495.6268656716418" y="217.59701492537314"/>
      <point x="521" y="287" type="qcurve" smooth="yes"/>
      <point x="585" y="463" type="line"/>
      <point x="755" y="0" type="line"/>
      <point x="874" y="0" type="line"/>
      <point x="1136" y="720" type="line"/>
    </contour>
  </outline>
</glyph>
<glyph name="X" format="2">
  <advance width="812"/>
  <unicode hex="0058"/>
  <outline>
    <contour>
      <point x="605" y="720" type="line"/>
      <point x="558.7313432835821" y="663.2835820895523"/>
      <point x="447.2985074626866" y="533.7462686567164"/>
      <point x="407" y="483" type="qcurve"/>
      <point x="207" y="720" type="line"/>
      <point x="46" y="720" type="line"/>
      <point x="46" y="667" type="line"/>
      <point x="109.43283582089552" y="592.3731343283582"/>
      <point x="240.3134328358209" y="435.3731343283582"/>
      <point x="303" y="360" type="qcurve"/>
      <point x="46" y="53" type="line"/>
      <point x="46" y="0" type="line"/>
      <point x="207" y="0" type="line"/>
      <point x="252.52238805970148" y="55.970149253731336"/>
      <point x="363.95522388059703" y="186.0"/>
      <point x="405" y="236" type="qcurve"/>
      <point x="605" y="0" type="line"/>
      <point x="766" y="0" type="line"/>
      <point x="766" y="54" type="line"/>
      <point x="508" y="360" type="line"/>
      <point x="766" y="667" type="line"/>
      <point x="766" y="720" type="line"/>
    </contour>
  </outline>
</glyph>
<glyph name="Y" format="2">
  <advance width="806"/>
  <unicode hex="0059"/>
  <outline>
    <contour>
      <point x="653" y="720" type="line"/>
      <point x="599.2686567164179" y="651.3432835820895"/>
      <point x="482.4776119402985" y="504.65671641791045"/>
      <point x="428" y="436" type="qcurve"/>
      <point x="202" y="720" type="line"/>
      <point x="17" y="720" type="line"/>
      <point x="58.7910447761194" y="662.5373134328358"/>
      <point x="171.98507462686567" y="507.6865671641791"/>
      <point x="219" y="445" type="qcurve" smooth="yes"/>
      <point x="350" y="269" type="line"/>
      <point x="350" y="0" type="line"/>
      <point x="506" y="0" type="line"/>
      <point x="506" y="268" type="line"/>
      <point x="840" y="720" type="line"/>
    </contour>
  </outline>
</glyph>
<glyph name="a" format="2">
  <advance width="694"/>
  <unicode hex="0061"/>
  <outline>
    <contour>
      <point x="52" y="580" type="line"/>
      <point x="52" y="427" type="line"/>
      <point x="487" y="427" type="line"/>
      <point x="487" y="367" type="line"/>
      <point x="52" y="367" type="line"/>
      <point x="52" y="145" type="line" smooth="yes"/>
      <point x="52.0" y="86.044776119403"/>
      <point x="137.2985074626866" y="0.0"/>
      <point x="197" y="0" type="qcurve" smooth="yes"/>
      <point x="640" y="0" type="line"/>
      <point x="640" y="435" type="line" smooth="yes"/>
      <point x="640.0" y="493.95522388059703"/>
      <point x="554.7014925373135" y="580.0"/>
      <point x="495" y="580" type="qcurve" smooth="yes"/>
    </contour>
    <contour>
      <point x="487" y="153" type="line"/>
      <point x="205" y="153" type="line"/>
      <point x="205" y="233" type="line"/>
      <point x="487" y="233" type="line"/>
    </contour>
  </outline>
</glyph>
<glyph name="b" format="2">
  <advance width="667"/>
  <unicode hex="0062"/>
  <outline>
    <contour>
      <point x="207" y="580" type="line"/>
      <point x="207" y="770" type="line"/>
      <point x="54" y="770" type="line"/>
      <point x="54" y="0" type="line"/>
      <point x="497" y="0" type="line" smooth="yes"/>
      <point x="556.7014925373135" y="0.0"/>
      <point x="642.0" y="86.044776119403"/>
      <point x="642" y="145" type="qcurve" smooth="yes"/>
      <point x="642" y="435" type="line" smooth="yes"/>
      <point x="642.0" y="493.95522388059703"/>
      <point x="556.7014925373135" y="580.0"/>
      <point x="497" y="580" type="qcurve" smooth="yes"/>
    </contour>
    <contour>
      <point x="207" y="427" type="line"/>
      <point x="489" y="427" type="line"/>
      <point x="489" y="153" type="line"/>
      <point x="207" y="153" type="line"/>
    </contour>
  </outline>
</glyph>
<glyph name="c" format="2">
  <advance width="695"/>
  <unicode hex="0063"/>
  <outline>
    <contour>
      <point x="638" y="427" type="line"/>
      <point x="638" y="580" type="line"/>
      <point x="196" y="580" type="line" smooth="yes"/>
      <point x="137.044776119403" y="580.0"/>
      <point x="51.0" y="493.95522388059703"/>
      <point x="51" y="435" type="qcurve" smooth="yes"/>
      <point x="51" y="145" type="line" smooth="yes"/>
      <point x="51.0" y="86.044776119403"/>
      <point x="137.044776119403" y="0.0"/>
      <point x="196" y="0" type="qcurve" smooth="yes"/>
      <point x="639" y="0" type="line"/>
      <point x="639" y="153" type="line"/>
      <point x="204" y="153" type="line"/>
      <point x="204" y="427" type="line"/>
    </contour>
  </outline>
</glyph>
<glyph name="d" format="2">
  <advance width="667"/>
  <unicode hex="0064"/>
  <outline>
    <contour>
      <point x="459" y="770" type="line"/>
      <point x="459" y="580" type="line"/>
      <point x="168" y="580" type="line" smooth="yes"/>
      <point x="108.29850746268657" y="580.0"/>
      <point x="23.0" y="493.95522388059703"/>
      <point x="23" y="435" type="qcurve" smooth="yes"/>
      <point x="23" y="145" type="line" smooth="yes"/>
      <point x="23.0" y="86.044776119403"/>
      <point x="108.29850746268657" y="0.0"/>
      <point x="168" y="0" type="qcurve" smooth="yes"/>
      <point x="612" y="0" type="line"/>
      <point x="612" y="770" type="line"/>
    </contour>
    <contour>
      <point x="177" y="427" type="line"/>
      <point x="459" y="427" type="line"/>
      <point x="459" y="153" type="line"/>
      <point x="177" y="153" type="line"/>
    </contour>
  </outline>
</glyph>
<glyph name="f" format="2">
  <advance width="440"/>
  <unicode hex="0066"/>
  <outline>
    <contour>
      <point x="421" y="616" type="line"/>
      <point x="421" y="770" type="line"/>
      <point x="199" y="770" type="line" smooth="yes"/>
      <point x="138.55223880597015" y="770.0"/>
      <point x="53.0" y="683.955223880597"/>
      <point x="53" y="625" type="qcurve" smooth="yes"/>
      <point x="53" y="0" type="line"/>
      <point x="206" y="0" type="line"/>
      <point x="206" y="427" type="line"/>
      <point x="421" y="427" type="line"/>
      <point x="421" y="580" type="line"/>
      <point x="206" y="580" type="line"/>
      <point x="206" y="616" type="line"/>
    </contour>
  </outline>
</glyph>
<glyph name="g" format="2">
  <advance width="683"/>
  <unicode hex="0067"/>
  <outline>
    <contour>
      <point x="630" y="435" type="line" smooth="yes"/>
      <point x="630.0" y="493.95522388059703"/>
      <point x="544.7014925373135" y="580.0"/>
      <point x="485" y="580" type="qcurve" smooth="yes"/>
      <point x="187" y="580" type="line" smooth="yes"/>
      <point x="127.29850746268657" y="580.0"/>
      <point x="41.0" y="493.95522388059703"/>
      <point x="41" y="435" type="qcurve" smooth="yes"/>
      <point x="41" y="145" type="line" smooth="yes"/>
      <point x="41.0" y="86.044776119403"/>
      <point x="127.29850746268657" y="0.0"/>
      <point x="187" y="0" type="qcurve" smooth="yes"/>
      <point x="477" y="0" type="line"/>
      <point x="477" y="-75" type="line"/>
      <point x="133" y="-75" type="line"/>
      <point x="133" y="-229" type="line"/>
      <point x="485" y="-229" type="line" smooth="yes"/>
      <point x="544.7014925373135" y="-229.0"/>
      <point x="630.0" y="-143.7014925373134"/>
      <point x="630" y="-84" type="qcurve" smooth="yes"/>
    </contour>
    <contour>
      <point x="194" y="427" type="line"/>
      <point x="477" y="427" type="line"/>
      <point x="477" y="153" type="line"/>
      <point x="194" y="153" type="line"/>
    </contour>
  </outline>
</glyph>
<glyph name="h" format="2">
  <advance width="668"/>
  <unicode hex="0068"/>
  <outline>
    <contour>
      <point x="207" y="580" type="line"/>
      <point x="207" y="770" type="line"/>
      <point x="54" y="770" type="line"/>
      <point x="54" y="0" type="line"/>
      <point x="207" y="0" type="line"/>
      <point x="207" y="427" type="line"/>
      <point x="489" y="427" type="line"/>
      <point x="489" y="0" type="line"/>
      <point x="642" y="0" type="line"/>
      <point x="642" y="435" type="line" smooth="yes"/>
      <point x="642.0" y="493.95522388059703"/>
      <point x="555.955223880597" y="580.0"/>
      <point x="497" y="580" type="qcurve" smooth="yes"/>
    </contour>
  </outline>
</glyph>
<glyph name="j" format="2">
  <advance width="239"/>
  <unicode hex="006A"/>
  <outline>
    <contour>
      <point x="58" y="770" type="line"/>
      <point x="58" y="616" type="line"/>
      <point x="211" y="616" type="line"/>
      <point x="211" y="770" type="line"/>
    </contour>
    <contour>
      <point x="211" y="580" type="line"/>
      <point x="58" y="580" type="line"/>
      <point x="58" y="-54" type="line"/>
      <point x="-187" y="-54" type="line"/>
      <point x="-187" y="-208" type="line"/>
      <point x="65" y="-208" type="line" smooth="yes"/>
      <point x="124.70149253731343" y="-208.0"/>
      <point x="211.0" y="-122.70149253731343"/>
      <point x="211" y="-63" type="qcurve" smooth="yes"/>
    </contour>
  </outline>
</glyph>
<glyph name="l" format="2">
  <advance width="337"/>
  <unicode hex="006C"/>
  <outline>
    <contour>
      <point x="52" y="771" type="line"/>
      <point x="52" y="145" type="line" smooth="yes"/>
      <point x="52.0" y="86.044776119403"/>
      <point x="138.044776119403" y="0.0"/>
      <point x="197" y="0" type="qcurve" smooth="yes"/>
      <point x="323" y="0" type="line"/>
      <point x="323" y="153" type="line"/>
      <point x="206" y="153" type="line"/>
      <point x="206" y="771" type="line"/>
    </contour>
  </outline>
</glyph>
<glyph name="n" format="2">
  <advance width="696"/>
  <unicode hex="006E"/>
  <outline>
    <contour>
      <point x="54" y="580" type="line"/>
      <point x="54" y="0" type="line"/>
      <point x="207" y="0" type="line"/>
      <point x="207" y="427" type="line"/>
      <point x="489" y="427" type="line"/>
      <point x="489" y="0" type="line"/>
      <point x="642" y="0" type="line"/>
      <point x="642" y="435" type="line" smooth="yes"/>
      <point x="642.0" y="493.95522388059703"/>
      <point x="556.7014925373135" y="580.0"/>
      <point x="497" y="580" type="qcurve" smooth="yes"/>
    </contour>
  </outline>
</glyph>
<glyph name="q" format="2">
  <advance width="664"/>
  <unicode hex="0071"/>
  <outline>
    <contour>
      <point x="20" y="145" type="line" smooth="yes"/>
      <point x="20.0" y="86.044776119403"/>
      <point x="105.29850746268657" y="0.0"/>
      <point x="165" y="0" type="qcurve" smooth="yes"/>
      <point x="456" y="0" type="line"/>
      <point x="456" y="-230" type="line"/>
      <point x="609" y="-230" type="line"/>
      <point x="609" y="580" type="line"/>
      <point x="165" y="580" type="line" smooth="yes"/>
      <point x="105.29850746268657" y="580.0"/>
      <point x="20.0" y="493.95522388059703"/>
      <point x="20" y="435" type="qcurve" smooth="yes"/>
    </contour>
    <contour>
      <point x="174" y="427" type="line"/>
      <point x="456" y="427" type="line"/>
      <point x="456" y="153" type="line"/>
      <point x="174" y="153" type="line"/>
    </contour>
  </outline>
</glyph>
<glyph name="r" format="2">
  <advance width="526"/>
  <unicode hex="0072"/>
  <outline>
    <contour>
      <point x="198" y="580" type="line" smooth="yes"/>
      <point x="138.2985074626866" y="580.0"/>
      <point x="52.0" y="493.95522388059703"/>
      <point x="52" y="435" type="qcurve" smooth="yes"/>
      <point x="52" y="0" type="line"/>
      <point x="205" y="0" type="line"/>
      <point x="205" y="427" type="line"/>
      <point x="518" y="427" type="line"/>
      <point x="518" y="580" type="line"/>
    </contour>
  </outline>
</glyph>
<glyph name="s" format="2">
  <advance width="686"/>
  <unicode hex="0073"/>
  <outline>
    <contour>
      <point x="637" y="435" type="line" smooth="yes"/>
      <point x="637.0" y="493.95522388059703"/>
      <point x="551.4477611940298" y="580.0"/>
      <point x="491" y="580" type="qcurve" smooth="yes"/>
      <point x="193" y="580" type="line" smooth="yes"/>
      <point x="134.044776119403" y="580.0"/>
      <point x="48.0" y="493.95522388059703"/>
      <point x="48" y="435" type="qcurve" smooth="yes"/>
      <point x="48" y="358" type="line" smooth="yes"/>
      <point x="48.0" y="299.04477611940297"/>
      <point x="134.044776119403" y="213.0"/>
      <point x="193" y="213" type="qcurve" smooth="yes"/>
      <point x="483" y="213" type="line"/>
      <point x="483" y="153" type="line"/>
      <point x="201" y="153" type="line"/>
      <point x="201" y="174" type="line"/>
      <point x="48" y="174" type="line"/>
      <point x="48" y="145" type="line" smooth="yes"/>
      <point x="48.0" y="86.044776119403"/>
      <point x="134.044776119403" y="0.0"/>
      <point x="193" y="0" type="qcurve" smooth="yes"/>
      <point x="491" y="0" type="line" smooth="yes"/>
      <point x="551.4477611940298" y="0.0"/>
      <point x="637.0" y="86.044776119403"/>
      <point x="637" y="145" type="qcurve" smooth="yes"/>
      <point x="637" y="222" type="line" smooth="yes"/>
      <point x="637.0" y="280.95522388059703"/>
      <point x="551.4477611940298" y="367.0"/>
      <point x="491" y="367" type="qcurve" smooth="yes"/>
      <point x="201" y="367" type="line"/>
      <point x="201" y="427" type="line"/>
      <point x="483" y="427" type="line"/>
      <point x="483" y="406" type="line"/>
      <point x="637" y="406" type="line"/>
    </contour>
  </outline>
</glyph>
<glyph name="t" format="2">
  <advance width="451"/>
  <unicode hex="0074"/>
  <outline>
    <contour>
      <point x="421" y="427" type="line"/>
      <point x="421" y="580" type="line"/>
      <point x="206" y="580" type="line"/>
      <point x="206" y="752" type="line"/>
      <point x="53" y="752" type="line"/>
      <point x="53" y="145" type="line" smooth="yes"/>
      <point x="53.0" y="86.044776119403"/>
      <point x="138.55223880597015" y="0.0"/>
      <point x="199" y="0" type="qcurve" smooth="yes"/>
      <point x="421" y="0" type="line"/>
      <point x="421" y="153" type="line"/>
      <point x="206" y="153" type="line"/>
      <point x="206" y="427" type="line"/>
    </contour>
  </outline>
</glyph>
<glyph name="w" format="2">
  <advance width="1053"/>
  <unicode hex="0077"/>
  <outline>
    <contour>
      <point x="857" y="580" type="line"/>
      <point x="830.1343283582089" y="507.6119402985075"/>
      <point x="770.1044776119403" y="349.6268656716418"/>
      <point x="741" y="275" type="qcurve"/>
      <point x="601" y="580" type="line"/>
      <point x="453" y="580" type="line"/>
      <point x="433.5970149253731" y="532.9850746268656"/>
      <point x="385.8955223880597" y="427.5074626865672"/>
      <point x="365" y="379" type="qcurve" smooth="yes"/>
      <point x="322" y="279" type="line"/>
      <point x="197" y="580" type="line"/>
      <point x="35" y="580" type="line"/>
      <point x="263" y="0" type="line"/>
      <point x="378" y="0" type="line"/>
      <point x="528" y="346" type="line"/>
      <point x="685" y="0" type="line"/>
      <point x="801" y="0" type="line"/>
      <point x="1019" y="580" type="line"/>
    </contour>
  </outline>
</glyph>
<glyph name="x" format="2">
  <advance width="692"/>
  <unicode hex="0078"/>
  <outline>
    <contour>
      <point x="486" y="580" type="line"/>
      <point x="453.1641791044776" y="540.4477611940299"/>
      <point x="379.32835820895525" y="452.2985074626866"/>
      <point x="345" y="412" type="qcurve"/>
      <point x="203" y="580" type="line"/>
      <point x="46" y="580" type="line"/>
      <point x="46" y="530" type="line"/>
      <point x="246" y="295" type="line"/>
      <point x="46" y="50" type="line"/>
      <point x="46" y="0" type="line"/>
      <point x="203" y="0" type="line"/>
      <point x="345" y="174" type="line"/>
      <point x="487" y="0" type="line"/>
      <point x="644" y="0" type="line"/>
      <point x="644" y="50" type="line"/>
      <point x="554" y="161" type="line" smooth="yes"/>
      <point x="527.1343283582089" y="193.83582089552237"/>
      <point x="470.86567164179104" y="261.4179104477612"/>
      <point x="444" y="295" type="qcurve"/>
      <point x="644" y="530" type="line"/>
      <point x="644" y="580" type="line"/>
    </contour>
  </outline>
</glyph>
<glyph name="braceleft" format="2">
  <advance width="289"/>
  <unicode hex="007B"/>
  <outline>
    <contour>
      <point x="216" y="331" type="line"/>
      <point x="194" y="349" type="line"/>
      <point x="194" y="348" type="line"/>
      <point x="171" y="368" type="line"/>
      <point x="216" y="406" type="line"/>
      <point x="216" y="567" type="line"/>
      <point x="274" y="567" type="line"/>
      <point x="274" y="720" type="line"/>
      <point x="209" y="720" type="line" smooth="yes"/>
      <point x="148.55223880597015" y="720.0"/>
      <point x="63.0" y="634.7014925373135"/>
      <point x="63" y="575" type="qcurve" smooth="yes"/>
      <point x="63" y="456" type="line"/>
      <point x="23" y="434" type="line"/>
      <point x="23" y="303" type="line"/>
      <point x="27.47761194029851" y="301.5074626865672"/>
      <point x="42.776119402985074" y="292.23880597014926"/>
      <point x="48" y="290" type="qcurve"/>
      <point x="47" y="290" type="line"/>
      <point x="63" y="280" type="line"/>
      <point x="63" y="145" type="line" smooth="yes"/>
      <point x="63.0" y="86.044776119403"/>
      <point x="148.55223880597015" y="0.0"/>
      <point x="209" y="0" type="qcurve" smooth="yes"/>
      <point x="274" y="0" type="line"/>
      <point x="274" y="153" type="line"/>
      <point x="216" y="153" type="line"/>
    </contour>
  </outline>
</glyph>
<glyph name="braceright" format="2">
  <advance width="289"/>
  <unicode hex="007D"/>
  <outline>
    <contour>
      <point x="51" y="0" type="line"/>
      <point x="116" y="0" type="line" smooth="yes"/>
      <point x="175.7014925373134" y="0.0"/>
      <point x="262.0" y="86.044776119403"/>
      <point x="262" y="145" type="qcurve" smooth="yes"/>
      <point x="262" y="280" type="line"/>
      <point x="302" y="305" type="line"/>
      <point x="302" y="433" type="line"/>
      <point x="262" y="457" type="line"/>
      <point x="262" y="575" type="line" smooth="yes"/>
      <point x="262.0" y="634.7014925373135"/>
      <point x="175.7014925373134" y="720.0"/>
      <point x="116" y="720" type="qcurve" smooth="yes"/>
      <point x="51" y="720" type="line"/>
      <point x="51" y="567" type="line"/>
      <point x="109" y="567" type="line"/>
      <point x="109" y="406" type="line"/>
      <point x="154" y="368" type="line"/>
      <point x="109" y="330" type="line"/>
      <point x="109" y="153" type="line"/>
      <point x="51" y="153" type="line"/>
    </contour>
  </outline>
</glyph>
<glyph name="asciitilde" format="2">
  <advance width="404"/>
  <unicode hex="007E"/>
  <outline>
    <contour>
      <point x="253.0" y="333.2089552238806"/>
      <point x="170.49253731343282" y="387.0"/>
      <point x="119" y="387" type="qcurve" smooth="yes"/>
      <point x="96.61194029850746" y="387.0"/>
      <point x="46.38805970149254" y="373.7014925373134"/>
      <point x="24" y="364" type="qcurve"/>
      <point x="24" y="232" type="line"/>
      <point x="59.07462686567164" y="258.86567164179104"/>
      <point x="101.05970149253731" y="271.0"/>
      <point x="113" y="271" type="qcurve" smooth="yes"/>
      <point x="163.7462686567164" y="271.0"/>
      <point x="247.01492537313433" y="210.0"/>
      <point x="300" y="210" type="qcurve" smooth="yes"/>
      <point x="325.3731343283582" y="210.0"/>
      <point x="375.86567164179104" y="225.29850746268656"/>
      <point x="399" y="235" type="qcurve"/>
      <point x="399" y="361" type="line"/>
      <point x="365.4179104477612" y="339.35820895522386"/>
      <point x="319.4179104477612" y="325.0"/>
      <point x="303" y="325" type="qcurve"/>
    </contour>
  </outline>
</glyph>
<glyph name="sterling" format="2">
  <advance width="734"/>
  <unicode hex="00A3"/>
  <outline>
    <contour>
      <point x="680" y="519" type="line"/>
      <point x="680" y="575" type="line" smooth="yes"/>
      <point x="680.0" y="634.7014925373135"/>
      <point x="594.7014925373135" y="720.0"/>
      <point x="535" y="720" type="qcurve" smooth="yes"/>
      <point x="274" y="720" type="line" smooth="yes"/>
      <point x="215.044776119403" y="720.0"/>
      <point x="129.0" y="634.7014925373135"/>
      <point x="129" y="575" type="qcurve" smooth="yes"/>
      <point x="129" y="430" type="line"/>
      <point x="39" y="430" type="line"/>
      <point x="39" y="277" type="line"/>
      <point x="129" y="277" type="line"/>
      <point x="129" y="153" type="line"/>
      <point x="39" y="153" type="line"/>
      <point x="39" y="0" type="line"/>
      <point x="680" y="0" type="line"/>
      <point x="680" y="153" type="line"/>
      <point x="282" y="153" type="line"/>
      <point x="282" y="277" type="line"/>
      <point x="584" y="277" type="line"/>
      <point x="584" y="430" type="line"/>
      <point x="282" y="430" type="line"/>
      <point x="282" y="567" type="line"/>
      <point x="526" y="567" type="line"/>
      <point x="526" y="519" type="line"/>
    </contour>
  </outline>
</glyph>
<glyph name="degree" format="2">
  <advance width="439"/>
  <unicode hex="00B0"/>
  <outline>
    <contour>
      <point x="191" y="706" type="line" smooth="yes"/>
      <point x="131.2985074626866" y="706.0"/>
      <point x="45.0" y="620.7014925373135"/>
      <point x="45" y="561" type="qcurve" smooth="yes"/>
      <point x="45" y="489" type="line" smooth="yes"/>
      <point x="45.0" y="429.2985074626866"/>
      <point x="131.2985074626866" y="343.0"/>
      <point x="191" y="343" type="qcurve" smooth="yes"/>
      <point x="272" y="343" type="line" smooth="yes"/>
      <point x="330.95522388059703" y="343.0"/>
      <point x="417.0" y="429.2985074626866"/>
      <point x="417" y="489" type="qcurve" smooth="yes"/>
      <point x="417" y="561" type="line" smooth="yes"/>
      <point x="417.0" y="620.7014925373135"/>
      <point x="330.95522388059703" y="706.0"/>
      <point x="272" y="706" type="qcurve" smooth="yes"/>
    </contour>
    <contour>
      <point x="180" y="571" type="line"/>
      <point x="282" y="571" type="line"/>
      <point x="282" y="479" type="line"/>
      <point x="180" y="479" type="line"/>
    </contour>
  </outline>
</glyph>
<glyph name="paragraph" format="2">
  <advance width="833"/>
  <unicode hex="00B6"/>
  <outline>
    <contour>
      <point x="56" y="377" type="line" smooth="yes"/>
      <point x="56.0" y="318.7910447761194"/>
      <point x="142.2985074626866" y="232.0"/>
      <point x="202" y="232" type="qcurve" smooth="yes"/>
      <point x="410" y="232" type="line"/>
      <point x="410" y="0" type="line"/>
      <point x="564" y="0" type="line"/>
      <point x="564" y="232" type="line"/>
      <point x="630" y="232" type="line"/>
      <point x="630" y="0" type="line"/>
      <point x="783" y="0" type="line"/>
      <point x="783" y="706" type="line"/>
      <point x="202" y="706" type="line" smooth="yes"/>
      <point x="142.2985074626866" y="706.0"/>
      <point x="56.0" y="618.955223880597"/>
      <point x="56" y="560" type="qcurve" smooth="yes"/>
    </contour>
    <contour>
      <point x="410" y="552" type="line"/>
      <point x="410" y="386" type="line"/>
      <point x="209" y="386" type="line"/>
      <point x="209" y="552" type="line"/>
    </contour>
    <contour>
      <point x="564" y="552" type="line"/>
      <point x="630" y="552" type="line"/>
      <point x="630" y="386" type="line"/>
      <point x="564" y="386" type="line"/>
    </contour>
  </outline>
</glyph>
<glyph name="questiondown" format="2">
  <advance width="675"/>
  <unicode hex="00BF"/>
  <outline>
    <contour>
      <point x="642" y="0" type="line"/>
      <point x="642" y="153" type="line"/>
      <point x="172" y="153" type="line"/>
      <point x="172" y="303" type="line"/>
      <point x="398" y="303" type="line" smooth="yes"/>
      <point x="457.7014925373134" y="303.0"/>
      <point x="544.0" y="389.2985074626866"/>
      <point x="544" y="449" type="qcurve" smooth="yes"/>
      <point x="544" y="532" type="line"/>
      <point x="391" y="532" type="line"/>
      <point x="391" y="457" type="line"/>
      <point x="165" y="457" type="line" smooth="yes"/>
      <point x="105.29850746268657" y="457.0"/>
      <point x="19.0" y="371.7014925373134"/>
      <point x="19" y="312" type="qcurve" smooth="yes"/>
      <point x="19" y="145" type="line" smooth="yes"/>
      <point x="19.0" y="86.044776119403"/>
      <point x="105.29850746268657" y="0.0"/>
      <point x="165" y="0" type="qcurve" smooth="yes"/>
    </contour>
    <contour>
      <point x="544" y="706" type="line"/>
      <point x="391" y="706" type="line"/>
      <point x="391" y="553" type="line"/>
      <point x="544" y="553" type="line"/>
    </contour>
  </outline>
</glyph>
<glyph name="Agrave" format="2">
  <advance width="836"/>
  <unicode hex="00C0"/>
  <outline>
    <contour>
      <point x="206" y="720" type="line" smooth="yes"/>
      <point x="144.80597014925374" y="720.0"/>
      <point x="58.0" y="633.1940298507462"/>
      <point x="58" y="572" type="qcurve" smooth="yes"/>
      <point x="58" y="0" type="line"/>
      <point x="213" y="0" type="line"/>
      <point x="213" y="232" type="line"/>
      <point x="621" y="232" type="line"/>
      <point x="621" y="0" type="line"/>
      <point x="778" y="0" type="line"/>
      <point x="778" y="572" type="line" smooth="yes"/>
      <point x="778.0" y="633.1940298507462"/>
      <point x="690.1940298507462" y="720.0"/>
      <point x="629" y="720" type="qcurve" smooth="yes"/>
    </contour>
    <contour>
      <point x="213" y="388" type="line"/>
      <point x="213" y="564" type="line"/>
      <point x="621" y="564" type="line"/>
      <point x="621" y="388" type="line"/>
    </contour>
    <contour>
      <point x="451" y="973" type="line"/>
      <point x="294" y="973" type="line"/>
      <point x="345" y="770" type="line"/>
      <point x="502" y="770" type="line"/>
    </contour>
  </outline>
</glyph>
<glyph name="Atilde" format="2">
  <advance width="836"/>
  <unicode hex="00C3"/>
  <outline>
    <contour>
      <point x="206" y="720" type="line" smooth="yes"/>
      <point x="144.80597014925374" y="720.0"/>
      <point x="58.0" y="633.1940298507462"/>
      <point x="58" y="572" type="qcurve" smooth="yes"/>
      <point x="58" y="0" type="line"/>
      <point x="213" y="0" type="line"/>
      <point x="213" y="232" type="line"/>
      <point x="621" y="232" type="line"/>
      <point x="621" y="0" type="line"/>
      <point x="778" y="0" type="line"/>
      <point x="778" y="572" type="line" smooth="yes"/>
      <point x="778.0" y="633.1940298507462"/>
      <point x="690.1940298507462" y="720.0"/>
      <point x="629" y="720" type="qcurve" smooth="yes"/>
    </contour>
    <contour>
      <point x="213" y="388" type="line"/>
      <point x="213" y="564" type="line"/>
      <point x="621" y="564" type="line"/>
      <point x="621" y="388" type="line"/>
    </contour>
    <contour>
      <point x="430.25373134328356" y="895.7164179104477"/>
      <point x="349.23880597014926" y="951.0"/>
      <point x="297" y="951" type="qcurve" smooth="yes"/>
      <point x="274.6119402985075" y="951.0"/>
      <point x="224.38805970149252" y="932.955223880597"/>
      <point x="202" y="924" type="qcurve"/>
      <point x="202" y="800" type="line"/>
      <point x="236.32835820895522" y="829.1044776119403"/>
      <point x="274.05970149253733" y="836.0"/>
      <point x="286" y="836" type="qcurve" smooth="yes"/>
      <point x="297" y="836" type="line" smooth="yes"/>
      <point x="342.5223880597015" y="836.0"/>
      <point x="425.01492537313436" y="774.0"/>
      <point x="478" y="774" type="qcurve" smooth="yes"/>
      <point x="503.3731343283582" y="774.0"/>
      <point x="553.8656716417911" y="790.2985074626865"/>
      <point x="577" y="800" type="qcurve"/>
      <point x="577" y="926" type="line"/>
      <point x="543.4179104477612" y="904.3582089552239"/>
      <point x="497.4179104477612" y="889.0"/>
      <point x="481" y="889" type="qcurve"/>
    </contour>
  </outline>
</glyph>
<glyph name="Adieresis" format="2">
  <advance width="836"/>
  <unicode hex="00C4"/>
  <outline>
    <contour>
      <point x="206" y="720" type="line" smooth="yes"/>
      <point x="144.80597014925374" y="720.0"/>
      <point x="58.0" y="633.1940298507462"/>
      <point x="58" y="572" type="qcurve" smooth="yes"/>
      <point x="58" y="0" type="line"/>
      <point x="213" y="0" type="line"/>
      <point x="213" y="232" type="line"/>
      <point x="621" y="232" type="line"/>
      <point x="621" y="0" type="line"/>
      <point x="778" y="0" type="line"/>
      <point x="778" y="572" type="line" smooth="yes"/>
      <point x="778.0" y="633.1940298507462"/>
      <point x="690.1940298507462" y="720.0"/>
      <point x="629" y="720" type="qcurve" smooth="yes"/>
    </contour>
    <contour>
      <point x="213" y="388" type="line"/>
      <point x="213" y="564" type="line"/>
      <point x="621" y="564" type="line"/>
      <point x="621" y="388" type="line"/>
    </contour>
    <contour>
      <point x="606" y="924" type="line"/>
      <point x="452" y="924" type="line"/>
      <point x="452" y="770" type="line"/>
      <point x="606" y="770" type="line"/>
    </contour>
    <contour>
      <point x="392" y="924" type="line"/>
      <point x="239" y="924" type="line"/>
      <point x="239" y="770" type="line"/>
      <point x="392" y="770" type="line"/>
    </contour>
  </outline>
</glyph>
<glyph name="Aring" format="2">
  <advance width="836"/>
  <unicode hex="00C5"/>
  <outline>
    <contour>
      <point x="206" y="720" type="line" smooth="yes"/>
      <point x="144.80597014925374" y="720.0"/>
      <point x="58.0" y="633.1940298507462"/>
      <point x="58" y="572" type="qcurve" smooth="yes"/>
      <point x="58" y="0" type="line"/>
      <point x="213" y="0" type="line"/>
      <point x="213" y="232" type="line"/>
      <point x="621" y="232" type="line"/>
      <point x="621" y="0" type="line"/>
      <point x="778" y="0" type="line"/>
      <point x="778" y="572" type="line" smooth="yes"/>
      <point x="778.0" y="633.1940298507462"/>
      <point x="690.1940298507462" y="720.0"/>
      <point x="629" y="720" type="qcurve" smooth="yes"/>
    </contour>
    <contour>
      <point x="213" y="388" type="line"/>
      <point x="213" y="564" type="line"/>
      <point x="621" y="564" type="line"/>
      <point x="621" y="388" type="line"/>
    </contour>
    <contour>
      <point x="377" y="972" type="line" smooth="yes"/>
      <point x="345.65671641791045" y="972.0"/>
      <point x="300.0" y="926.5970149253732"/>
      <point x="300" y="896" type="qcurve" smooth="yes"/>
      <point x="300" y="847" type="line" smooth="yes"/>
      <point x="300.0" y="816.4029850746268"/>
      <point x="345.65671641791045" y="771.0"/>
      <point x="377" y="771" type="qcurve" smooth="yes"/>
      <point x="428" y="771" type="line" smooth="yes"/>
      <point x="459.34328358208955" y="771.0"/>
      <point x="504.0" y="816.4029850746268"/>
      <point x="504" y="847" type="qcurve" smooth="yes"/>
      <point x="504" y="896" type="line" smooth="yes"/>
      <point x="504.0" y="926.5970149253732"/>
      <point x="459.34328358208955" y="972.0"/>
      <point x="428" y="972" type="qcurve" smooth="yes"/>
    </contour>
    <contour>
      <point x="377" y="894" type="line"/>
      <point x="428" y="894" type="line"/>
      <point x="428" y="840" type="line"/>
      <point x="377" y="840" type="line"/>
    </contour>
  </outline>
</glyph>
<glyph name="AE" format="2">
  <advance width="1375"/>
  <unicode hex="00C6"/>
  <outline>
    <contour>
      <point x="774" y="564" type="line"/>
      <point x="1283" y="564" type="line"/>
      <point x="1283" y="720" type="line"/>
      <point x="202" y="720" type="line" smooth="yes"/>
      <point x="141.55223880597015" y="720.0"/>
      <point x="54.0" y="633.1940298507462"/>
      <point x="54" y="572" type="qcurve" smooth="yes"/>
      <point x="54" y="0" type="line"/>
      <point x="211" y="0" type="line"/>
      <point x="211" y="232" type="line"/>
      <point x="619" y="232" type="line"/>
      <point x="619" y="0" type="line"/>
      <point x="1283" y="0" type="line"/>
      <point x="1283" y="156" type="line"/>
      <point x="774" y="156" type="line"/>
      <point x="774" y="282" type="line"/>
      <point x="1183" y="282" type="line"/>
      <point x="1183" y="438" type="line"/>
      <point x="774" y="438" type="line"/>
    </contour>
    <contour>
      <point x="619" y="388" type="line"/>
      <point x="211" y="388" type="line"/>
      <point x="211" y="564" type="line"/>
      <point x="619" y="564" type="line"/>
    </contour>
  </outline>
</glyph>
<glyph name="Ntilde" format="2">
  <advance width="832"/>
  <unicode hex="00D1"/>
  <outline>
    <contour>
      <point x="619" y="240" type="line"/>
      <point x="216" y="720" type="line"/>
      <point x="56" y="720" type="line"/>
      <point x="56" y="0" type="line"/>
      <point x="211" y="0" type="line"/>
      <point x="211" y="482" type="line"/>
      <point x="616" y="0" type="line"/>
      <point x="776" y="0" type="line"/>
      <point x="776" y="720" type="line"/>
      <point x="619" y="720" type="line"/>
    </contour>
    <contour>
      <point x="448.25373134328356" y="895.7164179104477"/>
      <point x="367.23880597014926" y="951.0"/>
      <point x="315" y="951" type="qcurve" smooth="yes"/>
      <point x="292.6119402985075" y="951.0"/>
      <point x="242.38805970149252" y="932.955223880597"/>
      <point x="220" y="924" type="qcurve"/>
      <point x="220" y="800" type="line"/>
      <point x="254.32835820895522" y="829.1044776119403"/>
      <point x="292.05970149253733" y="836.0"/>
      <point x="304" y="836" type="qcurve" smooth="yes"/>
      <point x="315" y="836" type="line" smooth="yes"/>
      <point x="360.5223880597015" y="836.0"/>
      <point x="443.01492537313436" y="774.0"/>
      <point x="496" y="774" type="qcurve" smooth="yes"/>
      <point x="521.3731343283582" y="774.0"/>
      <point x="571.8656716417911" y="790.2985074626865"/>
      <point x="595" y="800" type="qcurve"/>
      <point x="595" y="926" type="line"/>
      <point x="561.4179104477612" y="904.3582089552239"/>
      <point x="515.4179104477612" y="889.0"/>
      <point x="499" y="889" type="qcurve"/>
    </contour>
  </outline>
</glyph>
<glyph name="Ograve" format="2">
  <advance width="828"/>
  <unicode hex="00D2"/>
  <outline>
    <contour>
      <point x="202" y="720" type="line" smooth="yes"/>
      <point x="140.80597014925374" y="720.0"/>
      <point x="54.0" y="633.1940298507462"/>
      <point x="54" y="572" type="qcurve" smooth="yes"/>
      <point x="54" y="148" type="line" smooth="yes"/>
      <point x="54.0" y="86.80597014925374"/>
      <point x="140.80597014925374" y="0.0"/>
      <point x="202" y="0" type="qcurve" smooth="yes"/>
      <point x="626" y="0" type="line" smooth="yes"/>
      <point x="686.4477611940298" y="0.0"/>
      <point x="774.0" y="86.80597014925374"/>
      <point x="774" y="148" type="qcurve" smooth="yes"/>
      <point x="774" y="572" type="line" smooth="yes"/>
      <point x="774.0" y="633.1940298507462"/>
      <point x="686.4477611940298" y="720.0"/>
      <point x="626" y="720" type="qcurve" smooth="yes"/>
    </contour>
    <contour>
      <point x="209" y="564" type="line"/>
      <point x="617" y="564" type="line"/>
      <point x="617" y="156" type="line"/>
      <point x="209" y="156" type="line"/>
    </contour>
    <contour>
      <point x="457" y="973" type="line"/>
      <point x="300" y="973" type="line"/>
      <point x="351" y="770" type="line"/>
      <point x="508" y="770" type="line"/>
    </contour>
  </outline>
</glyph>
<glyph name="Otilde" format="2">
  <advance width="828"/>
  <unicode hex="00D5"/>
  <outline>
    <contour>
      <point x="202" y="720" type="line" smooth="yes"/>
      <point x="140.80597014925374" y="720.0"/>
      <point x="54.0" y="633.1940298507462"/>
      <point x="54" y="572" type="qcurve" smooth="yes"/>
      <point x="54" y="148" type="line" smooth="yes"/>
      <point x="54.0" y="86.80597014925374"/>
      <point x="140.80597014925374" y="0.0"/>
      <point x="202" y="0" type="qcurve" smooth="yes"/>
      <point x="626" y="0" type="line" smooth="yes"/>
      <point x="686.4477611940298" y="0.0"/>
      <point x="774.0" y="86.80597014925374"/>
      <point x="774" y="148" type="qcurve" smooth="yes"/>
      <point x="774" y="572" type="line" smooth="yes"/>
      <point x="774.0" y="633.1940298507462"/>
      <point x="686.4477611940298" y="720.0"/>
      <point x="626" y="720" type="qcurve" smooth="yes"/>
    </contour>
    <contour>
      <point x="209" y="564" type="line"/>
      <point x="617" y="564" type="line"/>
      <point x="617" y="156" type="line"/>
      <point x="209" y="156" type="line"/>
    </contour>
    <contour>
      <point x="436.25373134328356" y="895.7164179104477"/>
      <point x="355.23880597014926" y="951.0"/>
      <point x="303" y="951" type="qcurve" smooth="yes"/>
      <point x="280.6119402985075" y="951.0"/>
      <point x="230.38805970149252" y="932.955223880597"/>
      <point x="208" y="924" type="qcurve"/>
      <point x="208" y="800" type="line"/>
      <point x="242.32835820895522" y="829.1044776119403"/>
      <point x="280.05970149253733" y="836.0"/>
      <point x="292" y="836" type="qcurve" smooth="yes"/>
      <point x="303" y="836" type="line" smooth="yes"/>
      <point x="348.5223880597015" y="836.0"/>
      <point x="431.01492537313436" y="774.0"/>
      <point x="484" y="774" type="qcurve" smooth="yes"/>
      <point x="509.3731343283582" y="774.0"/>
      <point x="559.8656716417911" y="790.2985074626865"/>
      <point x="583" y="800" type="qcurve"/>
      <point x="583" y="926" type="line"/>
      <point x="549.4179104477612" y="904.3582089552239"/>
      <point x="503.4179104477612" y="889.0"/>
      <point x="487" y="889" type="qcurve"/>
    </contour>
  </outline>
</glyph>
<glyph name="Odieresis" format="2">
  <advance width="828"/>
  <unicode hex="00D6"/>
  <outline>
    <contour>
      <point x="202" y="720" type="line" smooth="yes"/>
      <point x="140.80597014925374" y="720.0"/>
      <point x="54.0" y="633.1940298507462"/>
      <point x="54" y="572" type="qcurve" smooth="yes"/>
      <point x="54" y="148" type="line" smooth="yes"/>
      <point x="54.0" y="86.80597014925374"/>
      <point x="140.80597014925374" y="0.0"/>
      <point x="202" y="0" type="qcurve" smooth="yes"/>
      <point x="626" y="0" type="line" smooth="yes"/>
      <point x="686.4477611940298" y="0.0"/>
      <point x="774.0" y="86.80597014925374"/>
      <point x="774" y="148" type="qcurve" smooth="yes"/>
      <point x="774" y="572" type="line" smooth="yes"/>
      <point x="774.0" y="633.1940298507462"/>
      <point x="686.4477611940298" y="720.0"/>
      <point x="626" y="720" type="qcurve" smooth="yes"/>
    </contour>
    <contour>
      <point x="209" y="564" type="line"/>
      <point x="617" y="564" type="line"/>
      <point x="617" y="156" type="line"/>
      <point x="209" y="156" type="line"/>
    </contour>
    <contour>
      <point x="602" y="924" type="line"/>
      <point x="448" y="924" type="line"/>
      <point x="448" y="770" type="line"/>
      <point x="602" y="770" type="line"/>
    </contour>
    <contour>
      <point x="388" y="924" type="line"/>
      <point x="235" y="924" type="line"/>
      <point x="235" y="770" type="line"/>
      <point x="388" y="770" type="line"/>
    </contour>
  </outline>
</glyph>
<glyph name="multiply" format="2">
  <advance width="546"/>
  <unicode hex="00D7"/>
  <outline>
    <contour>
      <point x="507" y="516" type="line"/>
      <point x="348" y="516" type="line"/>
      <point x="279" y="422" type="line"/>
      <point x="211" y="516" type="line"/>
      <point x="53" y="516" type="line"/>
      <point x="53" y="466" type="line"/>
      <point x="182" y="300" type="line"/>
      <point x="53" y="132" type="line"/>
      <point x="53" y="82" type="line"/>
      <point x="210" y="82" type="line"/>
      <point x="224.92537313432837" y="104.38805970149254"/>
      <point x="264.07462686567163" y="151.86567164179104"/>
      <point x="279" y="175" type="qcurve"/>
      <point x="348" y="82" type="line"/>
      <point x="507" y="82" type="line"/>
      <point x="507" y="132" type="line"/>
      <point x="377" y="300" type="line"/>
      <point x="507" y="466" type="line"/>
    </contour>
  </outline>
</glyph>
<glyph name="Ucircumflex" format="2">
  <advance width="828"/>
  <unicode hex="00DB"/>
  <outline>
    <contour>
      <point x="209" y="720" type="line"/>
      <point x="54" y="720" type="line"/>
      <point x="54" y="148" type="line" smooth="yes"/>
      <point x="54.0" y="86.80597014925374"/>
      <point x="140.80597014925374" y="0.0"/>
      <point x="202" y="0" type="qcurve" smooth="yes"/>
      <point x="626" y="0" type="line" smooth="yes"/>
      <point x="686.4477611940298" y="0.0"/>
      <point x="774.0" y="86.80597014925374"/>
      <point x="774" y="148" type="qcurve" smooth="yes"/>
      <point x="774" y="720" type="line"/>
      <point x="617" y="720" type="line"/>
      <point x="617" y="156" type="line"/>
      <point x="209" y="156" type="line"/>
    </contour>
    <contour>
      <point x="395" y="769" type="line"/>
      <point x="420" y="813" type="line"/>
      <point x="448" y="769" type="line"/>
      <point x="582" y="769" type="line"/>
      <point x="472" y="953" type="line"/>
      <point x="372" y="953" type="line"/>
      <point x="262" y="769" type="line"/>
    </contour>
  </outline>
</glyph>
<glyph name="Udieresis" format="2">
  <advance width="828"/>
  <unicode hex="00DC"/>
  <outline>
    <contour>
      <point x="209" y="720" type="line"/>
      <point x="54" y="720" type="line"/>
      <point x="54" y="148" type="line" smooth="yes"/>
      <point x="54.0" y="86.80597014925374"/>
      <point x="140.80597014925374" y="0.0"/>
      <point x="202" y="0" type="qcurve" smooth="yes"/>
      <point x="626" y="0" type="line" smooth="yes"/>
      <point x="686.4477611940298" y="0.0"/>
      <point x="774.0" y="86.80597014925374"/>
      <point x="774" y="148" type="qcurve" smooth="yes"/>
      <point x="774" y="720" type="line"/>
      <point x="617" y="720" type="line"/>
      <point x="617" y="156" type="line"/>
      <point x="209" y="156" type="line"/>
    </contour>
    <contour>
      <point x="602" y="924" type="line"/>
      <point x="448" y="924" type="line"/>
      <point x="448" y="770" type="line"/>
      <point x="602" y="770" type="line"/>
    </contour>
    <contour>
      <point x="388" y="924" type="line"/>
      <point x="235" y="924" type="line"/>
      <point x="235" y="770" type="line"/>
      <point x="388" y="770" type="line"/>
    </contour>
  </outline>
</glyph>
<glyph name="germandbls" format="2">
  <advance width="833"/>
  <unicode hex="00DF"/>
  <outline>
    <contour>
      <point x="764" y="587" type="line"/>
      <point x="755.044776119403" y="637.7462686567164"/>
      <point x="671.7313432835821" y="706.0"/>
      <point x="618" y="706" type="qcurve" smooth="yes"/>
      <point x="203" y="706" type="line" smooth="yes"/>
      <point x="143.2985074626866" y="706.0"/>
      <point x="57.0" y="620.7014925373135"/>
      <point x="57" y="561" type="qcurve" smooth="yes"/>
      <point x="57" y="0" type="line"/>
      <point x="210" y="0" type="line"/>
      <point x="210" y="552" type="line"/>
      <point x="611" y="552" type="line"/>
      <point x="611" y="429" type="line"/>
      <point x="273" y="429" type="line"/>
      <point x="273" y="285" type="line"/>
      <point x="611" y="285" type="line"/>
      <point x="611" y="153" type="line"/>
      <point x="273" y="153" type="line"/>
      <point x="273" y="0" type="line"/>
      <point x="618" y="0" type="line" smooth="yes"/>
      <point x="677.7014925373135" y="0.0"/>
      <point x="764.0" y="86.044776119403"/>
      <point x="764" y="145" type="qcurve" smooth="yes"/>
      <point x="764" y="294" type="line" smooth="yes"/>
      <point x="764.0" y="311.910447761194"/>
      <point x="755.955223880597" y="345.5820895522388"/>
      <point x="747" y="362" type="qcurve"/>
      <point x="755.2089552238806" y="377.67164179104475"/>
      <point x="764.0" y="414.5820895522388"/>
      <point x="764" y="431" type="qcurve" smooth="yes"/>
    </contour>
  </outline>
</glyph>
<glyph name="acircumflex" format="2">
  <advance width="725"/>
  <unicode hex="00E2"/>
  <outline>
    <contour>
      <point x="52" y="580" type="line"/>
      <point x="52" y="427" type="line"/>
      <point x="487" y="427" type="line"/>
      <point x="487" y="367" type="line"/>
      <point x="52" y="367" type="line"/>
      <point x="52" y="145" type="line" smooth="yes"/>
      <point x="52.0" y="86.044776119403"/>
      <point x="137.2985074626866" y="0.0"/>
      <point x="197" y="0" type="qcurve" smooth="yes"/>
      <point x="640" y="0" type="line"/>
      <point x="640" y="435" type="line" smooth="yes"/>
      <point x="640.0" y="493.95522388059703"/>
      <point x="554.7014925373135" y="580.0"/>
      <point x="495" y="580" type="qcurve" smooth="yes"/>
    </contour>
    <contour>
      <point x="487" y="153" type="line"/>
      <point x="205" y="153" type="line"/>
      <point x="205" y="233" type="line"/>
      <point x="487" y="233" type="line"/>
    </contour>
    <contour>
      <point x="343" y="638" type="line"/>
      <point x="368" y="682" type="line"/>
      <point x="396" y="638" type="line"/>
      <point x="530" y="638" type="line"/>
      <point x="420" y="822" type="line"/>
      <point x="320" y="822" type="line"/>
      <point x="210" y="638" type="line"/>
    </contour>
  </outline>
</glyph>
<glyph name="atilde" format="2">
  <advance width="725"/>
  <unicode hex="00E3"/>
  <outline>
    <contour>
      <point x="52" y="580" type="line"/>
      <point x="52" y="427" type="line"/>
      <point x="487" y="427" type="line"/>
      <point x="487" y="367" type="line"/>
      <point x="52" y="367" type="line"/>
      <point x="52" y="145" type="line" smooth="yes"/>
      <point x="52.0" y="86.044776119403"/>
      <point x="137.2985074626866" y="0.0"/>
      <point x="197" y="0" type="qcurve" smooth="yes"/>
      <point x="640" y="0" type="line"/>
      <point x="640" y="435" type="line" smooth="yes"/>
      <point x="640.0" y="493.95522388059703"/>
      <point x="554.7014925373135" y="580.0"/>
      <point x="495" y="580" type="qcurve" smooth="yes"/>
    </contour>
    <contour>
      <point x="487" y="153" type="line"/>
      <point x="205" y="153" type="line"/>
      <point x="205" y="233" type="line"/>
      <point x="487" y="233" type="line"/>
    </contour>
    <contour>
      <point x="364.25373134328356" y="762.7164179104477"/>
      <point x="283.23880597014926" y="818.0"/>
      <point x="231" y="818" type="qcurve" smooth="yes"/>
      <point x="208.61194029850748" y="818.0"/>
      <point x="158.38805970149252" y="799.955223880597"/>
      <point x="136" y="791" type="qcurve"/>
      <point x="136" y="667" type="line"/>
      <point x="170.32835820895522" y="696.1044776119403"/>
      <point x="208.05970149253733" y="703.0"/>
      <point x="220" y="703" type="qcurve" smooth="yes"/>
      <point x="231" y="703" type="line" smooth="yes"/>
      <point x="276.5223880597015" y="703.0"/>
      <point x="359.01492537313436" y="641.0"/>
      <point x="412" y="641" type="qcurve" smooth="yes"/>
      <point x="437.3731343283582" y="641.0"/>
      <point x="487.86567164179104" y="657.2985074626865"/>
      <point x="511" y="667" type="qcurve"/>
      <point x="511" y="793" type="line"/>
      <point x="477.4179104477612" y="771.3582089552239"/>
      <point x="431.4179104477612" y="756.0"/>
      <point x="415" y="756" type="qcurve"/>
    </contour>
  </outline>
</glyph>
<glyph name="aring" format="2">
  <advance width="725"/>
  <unicode hex="00E5"/>
  <outline>
    <contour>
      <point x="52" y="580" type="line"/>
      <point x="52" y="427" type="line"/>
      <point x="487" y="427" type="line"/>
      <point x="487" y="367" type="line"/>
      <point x="52" y="367" type="line"/>
      <point x="52" y="145" type="line" smooth="yes"/>
      <point x="52.0" y="86.044776119403"/>
      <point x="137.2985074626866" y="0.0"/>
      <point x="197" y="0" type="qcurve" smooth="yes"/>
      <point x="640" y="0" type="line"/>
      <point x="640" y="435" type="line" smooth="yes"/>
      <point x="640.0" y="493.95522388059703"/>
      <point x="554.7014925373135" y="580.0"/>
      <point x="495" y="580" type="qcurve" smooth="yes"/>
    </contour>
    <contour>
      <point x="487" y="153" type="line"/>
      <point x="205" y="153" type="line"/>
      <point x="205" y="233" type="line"/>
      <point x="487" y="233" type="line"/>
    </contour>
    <contour>
      <point x="281" y="839" type="line" smooth="yes"/>
      <point x="249.65671641791045" y="839.0"/>
      <point x="204.0" y="793.5970149253732"/>
      <point x="204" y="763" type="qcurve" smooth="yes"/>
      <point x="204" y="714" type="line" smooth="yes"/>
      <point x="204.0" y="683.4029850746268"/>
      <point x="249.65671641791045" y="638.0"/>
      <point x="281" y="638" type="qcurve" smooth="yes"/>
      <point x="332" y="638" type="line" smooth="yes"/>
      <point x="363.34328358208955" y="638.0"/>
      <point x="408.0" y="683.4029850746268"/>
      <point x="408" y="714" type="qcurve" smooth="yes"/>
      <point x="408" y="763" type="line" smooth="yes"/>
      <point x="408.0" y="793.5970149253732"/>
      <point x="363.34328358208955" y="839.0"/>
      <point x="332" y="839" type="qcurve" smooth="yes"/>
    </contour>
    <contour>
      <point x="281" y="761" type="line"/>
      <point x="332" y="761" type="line"/>
      <point x="332" y="707" type="line"/>
      <point x="281" y="707" type="line"/>
    </contour>
  </outline>
</glyph>
<glyph name="ae" format="2">
  <advance width="1178"/>
  <unicode hex="00E6"/>
  <outline>
    <contour>
      <point x="53" y="580" type="line"/>
      <point x="53" y="427" type="line"/>
      <point x="489" y="427" type="line"/>
      <point x="489" y="367" type="line"/>
      <point x="53" y="367" type="line"/>
      <point x="53" y="145" type="line" smooth="yes"/>
      <point x="53.0" y="86.044776119403"/>
      <point x="138.2985074626866" y="0.0"/>
      <point x="198" y="0" type="qcurve" smooth="yes"/>
      <point x="1077" y="0" type="line"/>
      <point x="1077" y="153" type="line"/>
      <point x="642" y="153" type="line"/>
      <point x="642" y="213" type="line"/>
      <point x="1077" y="213" type="line"/>
      <point x="1077" y="435" type="line" smooth="yes"/>
      <point x="1077.0" y="493.95522388059703"/>
      <point x="992.7014925373135" y="580.0"/>
      <point x="933" y="580" type="qcurve" smooth="yes"/>
    </contour>
    <contour>
      <point x="489" y="153" type="line"/>
      <point x="206" y="153" type="line"/>
      <point x="206" y="233" type="line"/>
      <point x="489" y="233" type="line"/>
    </contour>
    <contour>
      <point x="642" y="347" type="line"/>
      <point x="642" y="427" type="line"/>
      <point x="924" y="427" type="line"/>
      <point x="924" y="347" type="line"/>
    </contour>
  </outline>
</glyph>
<glyph name="ccedilla" format="2">
  <advance width="693"/>
  <unicode hex="00E7"/>
  <outline>
    <contour>
      <point x="204" y="153" type="line"/>
      <point x="204" y="427" type="line"/>
      <point x="638" y="427" type="line"/>
      <point x="638" y="580" type="line"/>
      <point x="196" y="580" type="line" smooth="yes"/>
      <point x="137.044776119403" y="580.0"/>
      <point x="51.0" y="493.95522388059703"/>
      <point x="51" y="435" type="qcurve" smooth="yes"/>
      <point x="51" y="145" type="line" smooth="yes"/>
      <point x="51.0" y="86.044776119403"/>
      <point x="137.044776119403" y="0.0"/>
      <point x="196" y="0" type="qcurve" smooth="yes"/>
      <point x="313" y="0" type="line"/>
      <point x="305.53731343283584" y="-31.343283582089548"/>
      <point x="281.46268656716416" y="-94.41791044776119"/>
      <point x="274" y="-128" type="qcurve"/>
      <point x="371" y="-128" type="line"/>
      <point x="378.46268656716416" y="-96.65671641791045"/>
      <point x="402.53731343283584" y="-33.582089552238806"/>
      <point x="410" y="0" type="qcurve"/>
      <point x="639" y="0" type="line"/>
      <point x="639" y="153" type="line"/>
    </contour>
  </outline>
</glyph>
<glyph name="ntilde" format="2">
  <advance width="708"/>
  <unicode hex="00F1"/>
  <outline>
    <contour>
      <point x="54" y="580" type="line"/>
      <point x="54" y="0" type="line"/>
      <point x="207" y="0" type="line"/>
      <point x="207" y="427" type="line"/>
      <point x="489" y="427" type="line"/>
      <point x="489" y="0" type="line"/>
      <point x="642" y="0" type="line"/>
      <point x="642" y="435" type="line" smooth="yes"/>
      <point x="642.0" y="493.95522388059703"/>
      <point x="556.7014925373135" y="580.0"/>
      <point x="497" y="580" type="qcurve" smooth="yes"/>
    </contour>
    <contour>
      <point x="366.25373134328356" y="761.7164179104477"/>
      <point x="285.23880597014926" y="817.0"/>
      <point x="233" y="817" type="qcurve" smooth="yes"/>
      <point x="210.61194029850748" y="817.0"/>
      <point x="160.38805970149252" y="798.955223880597"/>
      <point x="138" y="790" type="qcurve"/>
      <point x="138" y="666" type="line"/>
      <point x="172.32835820895522" y="695.1044776119403"/>
      <point x="210.05970149253733" y="702.0"/>
      <point x="222" y="702" type="qcurve" smooth="yes"/>
      <point x="233" y="702" type="line" smooth="yes"/>
      <point x="278.5223880597015" y="702.0"/>
      <point x="361.01492537313436" y="640.0"/>
      <point x="414" y="640" type="qcurve" smooth="yes"/>
      <point x="439.3731343283582" y="640.0"/>
      <point x="489.86567164179104" y="656.2985074626865"/>
      <point x="513" y="666" type="qcurve"/>
      <point x="513" y="792" type="line"/>
      <point x="479.4179104477612" y="770.3582089552239"/>
      <point x="433.4179104477612" y="755.0"/>
      <point x="417" y="755" type="qcurve"/>
    </contour>
  </outline>
</glyph>
<glyph name="ograve" format="2">
  <advance width="692"/>
  <unicode hex="00F2"/>
  <outline>
    <contour>
      <point x="196" y="580" type="line" smooth="yes"/>
      <point x="137.044776119403" y="580.0"/>
      <point x="51.0" y="493.95522388059703"/>
      <point x="51" y="435" type="qcurve" smooth="yes"/>
      <point x="51" y="145" type="line" smooth="yes"/>
      <point x="51.0" y="86.044776119403"/>
      <point x="137.044776119403" y="0.0"/>
      <point x="196" y="0" type="qcurve" smooth="yes"/>
      <point x="494" y="0" type="line" smooth="yes"/>
      <point x="553.7014925373135" y="0.0"/>
      <point x="639.0" y="86.044776119403"/>
      <point x="639" y="145" type="qcurve" smooth="yes"/>
      <point x="639" y="435" type="line" smooth="yes"/>
      <point x="639.0" y="493.95522388059703"/>
      <point x="553.7014925373135" y="580.0"/>
      <point x="494" y="580" type="qcurve" smooth="yes"/>
    </contour>
    <contour>
      <point x="204" y="427" type="line"/>
      <point x="486" y="427" type="line"/>
      <point x="486" y="153" type="line"/>
      <point x="204" y="153" type="line"/>
    </contour>
    <contour>
      <point x="399" y="842" type="line"/>
      <point x="242" y="842" type="line"/>
      <point x="293" y="639" type="line"/>
      <point x="450" y="639" type="line"/>
    </contour>
  </outline>
</glyph>
<glyph name="ocircumflex" format="2">
  <advance width="692"/>
  <unicode hex="00F4"/>
  <outline>
    <contour>
      <point x="196" y="580" type="line" smooth="yes"/>
      <point x="137.044776119403" y="580.0"/>
      <point x="51.0" y="493.95522388059703"/>
      <point x="51" y="435" type="qcurve" smooth="yes"/>
      <point x="51" y="145" type="line" smooth="yes"/>
      <point x="51.0" y="86.044776119403"/>
      <point x="137.044776119403" y="0.0"/>
      <point x="196" y="0" type="qcurve" smooth="yes"/>
      <point x="494" y="0" type="line" smooth="yes"/>
      <point x="553.7014925373135" y="0.0"/>
      <point x="639.0" y="86.044776119403"/>
      <point x="639" y="145" type="qcurve" smooth="yes"/>
      <point x="639" y="435" type="line" smooth="yes"/>
      <point x="639.0" y="493.95522388059703"/>
      <point x="553.7014925373135" y="580.0"/>
      <point x="494" y="580" type="qcurve" smooth="yes"/>
    </contour>
    <contour>
      <point x="204" y="427" type="line"/>
      <point x="486" y="427" type="line"/>
      <point x="486" y="153" type="line"/>
      <point x="204" y="153" type="line"/>
    </contour>
    <contour>
      <point x="327" y="638" type="line"/>
      <point x="352" y="682" type="line"/>
      <point x="380" y="638" type="line"/>
      <point x="514" y="638" type="line"/>
      <point x="404" y="822" type="line"/>
      <point x="304" y="822" type="line"/>
      <point x="194" y="638" type="line"/>
    </contour>
  </outline>
</glyph>
<glyph name="otilde" format="2">
  <advance width="692"/>
  <unicode hex="00F5"/>
  <outline>
    <contour>
      <point x="196" y="580" type="line" smooth="yes"/>
      <point x="137.044776119403" y="580.0"/>
      <point x="51.0" y="493.95522388059703"/>
      <point x="51" y="435" type="qcurve" smooth="yes"/>
      <point x="51" y="145" type="line" smooth="yes"/>
      <point x="51.0" y="86.044776119403"/>
      <point x="137.044776119403" y="0.0"/>
      <point x="196" y="0" type="qcurve" smooth="yes"/>
      <point x="494" y="0" type="line" smooth="yes"/>
      <point x="553.7014925373135" y="0.0"/>
      <point x="639.0" y="86.044776119403"/>
      <point x="639" y="145" type="qcurve" smooth="yes"/>
      <point x="639" y="435" type="line" smooth="yes"/>
      <point x="639.0" y="493.95522388059703"/>
      <point x="553.7014925373135" y="580.0"/>
      <point x="494" y="580" type="qcurve" smooth="yes"/>
    </contour>
    <contour>
      <point x="204" y="427" type="line"/>
      <point x="486" y="427" type="line"/>
      <point x="486" y="153" type="line"/>
      <point x="204" y="153" type="line"/>
    </contour>
    <contour>
      <point x="368.25373134328356" y="761.7164179104477"/>
      <point x="287.23880597014926" y="817.0"/>
      <point x="235" y="817" type="qcurve" smooth="yes"/>
      <point x="212.61194029850748" y="817.0"/>
      <point x="162.38805970149252" y="798.955223880597"/>
      <point x="140" y="790" type="qcurve"/>
      <point x="140" y="666" type="line"/>
      <point x="174.32835820895522" y="695.1044776119403"/>
      <point x="212.05970149253733" y="702.0"/>
      <point x="224" y="702" type="qcurve" smooth="yes"/>
      <point x="235" y="702" type="line" smooth="yes"/>
      <point x="280.5223880597015" y="702.0"/>
      <point x="363.01492537313436" y="640.0"/>
      <point x="416" y="640" type="qcurve" smooth="yes"/>
      <point x="441.3731343283582" y="640.0"/>
      <point x="491.86567164179104" y="656.2985074626865"/>
      <point x="515" y="666" type="qcurve"/>
      <point x="515" y="792" type="line"/>
      <point x="481.4179104477612" y="770.3582089552239"/>
      <point x="435.4179104477612" y="755.0"/>
      <point x="419" y="755" type="qcurve"/>
    </contour>
  </outline>
</glyph>
<glyph name="ugrave" format="2">
  <advance width="695"/>
  <unicode hex="00F9"/>
  <outline>
    <contour>
      <point x="488" y="580" type="line"/>
      <point x="488" y="153" type="line"/>
      <point x="206" y="153" type="line"/>
      <point x="206" y="580" type="line"/>
      <point x="53" y="580" type="line"/>
      <point x="53" y="145" type="line" smooth="yes"/>
      <point x="53.0" y="86.044776119403"/>
      <point x="138.2985074626866" y="0.0"/>
      <point x="198" y="0" type="qcurve" smooth="yes"/>
      <point x="496" y="0" type="line" smooth="yes"/>
      <point x="555.7014925373135" y="0.0"/>
      <point x="641.0" y="86.044776119403"/>
      <point x="641" y="145" type="qcurve" smooth="yes"/>
      <point x="641" y="580" type="line"/>
    </contour>
    <contour>
      <point x="390" y="842" type="line"/>
      <point x="233" y="842" type="line"/>
      <point x="284" y="639" type="line"/>
      <point x="441" y="639" type="line"/>
    </contour>
  </outline>
</glyph>
<glyph name="ucircumflex" format="2">
  <advance width="695"/>
  <unicode hex="00FB"/>
  <outline>
    <contour>
      <point x="488" y="580" type="line"/>
      <point x="488" y="153" type="line"/>
      <point x="206" y="153" type="line"/>
      <point x="206" y="580" type="line"/>
      <point x="53" y="580" type="line"/>
      <point x="53" y="145" type="line" smooth="yes"/>
      <point x="53.0" y="86.044776119403"/>
      <point x="138.2985074626866" y="0.0"/>
      <point x="198" y="0" type="qcurve" smooth="yes"/>
      <point x="496" y="0" type="line" smooth="yes"/>
      <point x="555.7014925373135" y="0.0"/>
      <point x="641.0" y="86.044776119403"/>
      <point x="641" y="145" type="qcurve" smooth="yes"/>
      <point x="641" y="580" type="line"/>
    </contour>
    <contour>
      <point x="318" y="639" type="line"/>
      <point x="343" y="683" type="line"/>
      <point x="371" y="639" type="line"/>
      <point x="505" y="639" type="line"/>
      <point x="395" y="823" type="line"/>
      <point x="295" y="823" type="line"/>
      <point x="185" y="639" type="line"/>
    </contour>
  </outline>
</glyph>
<glyph name="udieresis" format="2">
  <advance width="695"/>
  <unicode hex="00FC"/>
  <outline>
    <contour>
      <point x="488" y="580" type="line"/>
      <point x="488" y="153" type="line"/>
      <point x="206" y="153" type="line"/>
      <point x="206" y="580" type="line"/>
      <point x="53" y="580" type="line"/>
      <point x="53" y="145" type="line" smooth="yes"/>
      <point x="53.0" y="86.044776119403"/>
      <point x="138.2985074626866" y="0.0"/>
      <point x="198" y="0" type="qcurve" smooth="yes"/>
      <point x="496" y="0" type="line" smooth="yes"/>
      <point x="555.7014925373135" y="0.0"/>
      <point x="641.0" y="86.044776119403"/>
      <point x="641" y="145" type="qcurve" smooth="yes"/>
      <point x="641" y="580" type="line"/>
    </contour>
    <contour>
      <point x="545" y="792" type="line"/>
      <point x="391" y="792" type="line"/>
      <point x="391" y="638" type="line"/>
      <point x="545" y="638" type="line"/>
    </contour>
    <contour>
      <point x="331" y="792" type="line"/>
      <point x="178" y="792" type="line"/>
      <point x="178" y="638" type="line"/>
      <point x="331" y="638" type="line"/>
    </contour>
  </outline>
</glyph>
<glyph name="yacute" format="2">
  <advance width="688"/>
  <unicode hex="00FD"/>
  <outline>
    <contour>
      <point x="631" y="578" type="line"/>
      <point x="478" y="578" type="line"/>
      <point x="478" y="153" type="line"/>
      <point x="195" y="153" type="line"/>
      <point x="195" y="578" type="line"/>
      <point x="42" y="578" type="line"/>
      <point x="42" y="145" type="line" smooth="yes"/>
      <point x="42.0" y="86.044776119403"/>
      <point x="128.2985074626866" y="0.0"/>
      <point x="188" y="0" type="qcurve" smooth="yes"/>
      <point x="478" y="0" type="line"/>
      <point x="478" y="-54" type="line"/>
      <point x="134" y="-54" type="line"/>
      <point x="134" y="-208" type="line"/>
      <point x="486" y="-208" type="line" smooth="yes"/>
      <point x="545.7014925373135" y="-208.0"/>
      <point x="631.0" y="-122.70149253731343"/>
      <point x="631" y="-63" type="qcurve" smooth="yes"/>
    </contour>
    <contour>
      <point x="270" y="639" type="line"/>
      <point x="427" y="639" type="line"/>
      <point x="478" y="842" type="line"/>
      <point x="321" y="842" type="line"/>
    </contour>
  </outline>
</glyph>
<glyph name="OE" format="2">
  <advance width="1374"/>
  <unicode hex="0152"/>
  <outline>
    <contour>
      <point x="773" y="564" type="line"/>
      <point x="1282" y="564" type="line"/>
      <point x="1282" y="720" type="line"/>
      <point x="201" y="720" type="line" smooth="yes"/>
      <point x="140.55223880597015" y="720.0"/>
      <point x="53.0" y="633.1940298507462"/>
      <point x="53" y="572" type="qcurve" smooth="yes"/>
      <point x="53" y="148" type="line" smooth="yes"/>
      <point x="53.0" y="86.80597014925374"/>
      <point x="140.55223880597015" y="0.0"/>
      <point x="201" y="0" type="qcurve" smooth="yes"/>
      <point x="1282" y="0" type="line"/>
      <point x="1282" y="156" type="line"/>
      <point x="773" y="156" type="line"/>
      <point x="773" y="282" type="line"/>
      <point x="1182" y="282" type="line"/>
      <point x="1182" y="438" type="line"/>
      <point x="773" y="438" type="line"/>
    </contour>
    <contour>
      <point x="210" y="564" type="line"/>
      <point x="618" y="564" type="line"/>
      <point x="618" y="156" type="line"/>
      <point x="210" y="156" type="line"/>
    </contour>
  </outline>
</glyph>
<glyph name="oe" format="2">
  <advance width="1177"/>
  <unicode hex="0153"/>
  <outline>
    <contour>
      <point x="1076" y="213" type="line"/>
      <point x="1076" y="435" type="line" smooth="yes"/>
      <point x="1076.0" y="493.95522388059703"/>
      <point x="991.7014925373135" y="580.0"/>
      <point x="932" y="580" type="qcurve" smooth="yes"/>
      <point x="198" y="580" type="line" smooth="yes"/>
      <point x="137.55223880597015" y="580.0"/>
      <point x="52.0" y="493.95522388059703"/>
      <point x="52" y="435" type="qcurve" smooth="yes"/>
      <point x="52" y="145" type="line" smooth="yes"/>
      <point x="52.0" y="86.044776119403"/>
      <point x="137.55223880597015" y="0.0"/>
      <point x="198" y="0" type="qcurve" smooth="yes"/>
      <point x="1076" y="0" type="line"/>
      <point x="1076" y="153" type="line"/>
      <point x="641" y="153" type="line"/>
      <point x="641" y="213" type="line"/>
    </contour>
    <contour>
      <point x="641" y="347" type="line"/>
      <point x="641" y="427" type="line"/>
      <point x="923" y="427" type="line"/>
      <point x="923" y="347" type="line"/>
    </contour>
    <contour>
      <point x="205" y="427" type="line"/>
      <point x="488" y="427" type="line"/>
      <point x="488" y="153" type="line"/>
      <point x="205" y="153" type="line"/>
    </contour>
  </outline>
</glyph>
<glyph name="scaron" format="2">
  <advance width="687"/>
  <unicode hex="0161"/>
  <outline>
    <contour>
      <point x="637" y="435" type="line" smooth="yes"/>
      <point x="637.0" y="493.95522388059703"/>
      <point x="551.4477611940298" y="580.0"/>
      <point x="491" y="580" type="qcurve" smooth="yes"/>
      <point x="193" y="580" type="line" smooth="yes"/>
      <point x="134.044776119403" y="580.0"/>
      <point x="48.0" y="493.95522388059703"/>
      <point x="48" y="435" type="qcurve" smooth="yes"/>
      <point x="48" y="358" type="line" smooth="yes"/>
      <point x="48.0" y="299.04477611940297"/>
      <point x="134.044776119403" y="213.0"/>
      <point x="193" y="213" type="qcurve" smooth="yes"/>
      <point x="483" y="213" type="line"/>
      <point x="483" y="153" type="line"/>
      <point x="201" y="153" type="line"/>
      <point x="201" y="174" type="line"/>
      <point x="48" y="174" type="line"/>
      <point x="48" y="145" type="line" smooth="yes"/>
      <point x="48.0" y="86.044776119403"/>
      <point x="134.044776119403" y="0.0"/>
      <point x="193" y="0" type="qcurve" smooth="yes"/>
      <point x="491" y="0" type="line" smooth="yes"/>
      <point x="551.4477611940298" y="0.0"/>
      <point x="637.0" y="86.044776119403"/>
      <point x="637" y="145" type="qcurve" smooth="yes"/>
      <point x="637" y="222" type="line" smooth="yes"/>
      <point x="637.0" y="280.95522388059703"/>
      <point x="551.4477611940298" y="367.0"/>
      <point x="491" y="367" type="qcurve" smooth="yes"/>
      <point x="201" y="367" type="line"/>
      <point x="201" y="427" type="line"/>
      <point x="483" y="427" type="line"/>
      <point x="483" y="406" type="line"/>
      <point x="637" y="406" type="line"/>
    </contour>
    <contour>
      <point x="191" y="822" type="line"/>
      <point x="301" y="638" type="line"/>
      <point x="401" y="638" type="line"/>
      <point x="511" y="822" type="line"/>
      <point x="376" y="822" type="line"/>
      <point x="349" y="778" type="line"/>
      <point x="322" y="822" type="line"/>
    </contour>
  </outline>
</glyph>
<glyph name="Ydieresis" format="2">
  <advance width="806"/>
  <unicode hex="0178"/>
  <outline>
    <contour>
      <point x="653" y="720" type="line"/>
      <point x="599.2686567164179" y="651.3432835820895"/>
      <point x="482.4776119402985" y="504.65671641791045"/>
      <point x="428" y="436" type="qcurve"/>
      <point x="202" y="720" type="line"/>
      <point x="17" y="720" type="line"/>
      <point x="58.7910447761194" y="662.5373134328358"/>
      <point x="171.98507462686567" y="507.6865671641791"/>
      <point x="219" y="445" type="qcurve" smooth="yes"/>
      <point x="350" y="269" type="line"/>
      <point x="350" y="0" type="line"/>
      <point x="506" y="0" type="line"/>
      <point x="506" y="268" type="line"/>
      <point x="840" y="720" type="line"/>
    </contour>
    <contour>
      <point x="611" y="924" type="line"/>
      <point x="457" y="924" type="line"/>
      <point x="457" y="770" type="line"/>
      <point x="611" y="770" type="line"/>
    </contour>
    <contour>
      <point x="397" y="924" type="line"/>
      <point x="244" y="924" type="line"/>
      <point x="244" y="770" type="line"/>
      <point x="397" y="770" type="line"/>
    </contour>
  </outline>
</glyph>
<glyph name="breve" format="2">
  <advance width="287"/>
  <unicode hex="02D8"/>
  <outline>
    <contour>
      <point x="181" y="880" type="line"/>
      <point x="181" y="850" type="line"/>
      <point x="142" y="850" type="line"/>
      <point x="142" y="880" type="line"/>
      <point x="40" y="880" type="line"/>
      <point x="40" y="845" type="line" smooth="yes"/>
      <point x="40.0" y="805.4477611940299"/>
      <point x="95.46268656716418" y="747.0"/>
      <point x="138" y="747" type="qcurve" smooth="yes"/>
      <point x="184" y="747" type="line" smooth="yes"/>
      <point x="226.53731343283582" y="747.0"/>
      <point x="282.0" y="805.4477611940299"/>
      <point x="282" y="845" type="qcurve" smooth="yes"/>
      <point x="282" y="880" type="line"/>
    </contour>
  </outline>
</glyph>
<glyph name="dotaccent" format="2">
  <advance width="233"/>
  <unicode hex="02D9"/>
  <outline>
    <contour>
      <point x="122" y="931" type="line" smooth="yes"/>
      <point x="90.65671641791045" y="931.0"/>
      <point x="45.0" y="885.5970149253732"/>
      <point x="45" y="855" type="qcurve" smooth="yes"/>
      <point x="45" y="824" type="line" smooth="yes"/>
      <point x="45.0" y="793.4029850746268"/>
      <point x="90.65671641791045" y="748.0"/>
      <point x="122" y="748" type="qcurve" smooth="yes"/>
      <point x="154" y="748" type="line" smooth="yes"/>
      <point x="185.34328358208955" y="748.0"/>
      <point x="231.0" y="793.4029850746268"/>
      <point x="231" y="824" type="qcurve" smooth="yes"/>
      <point x="231" y="855" type="line" smooth="yes"/>
      <point x="231.0" y="885.5970149253732"/>
      <point x="185.34328358208955" y="931.0"/>
      <point x="154" y="931" type="qcurve" smooth="yes"/>
    </contour>
  </outline>
</glyph>
<glyph name="ring" format="2">
  <advance width="233"/>
  <unicode hex="02DA"/>
  <outline>
    <contour>
      <point x="86" y="949" type="line" smooth="yes"/>
      <point x="54.65671641791045" y="949.0"/>
      <point x="9.0" y="903.5970149253732"/>
      <point x="9" y="873" type="qcurve" smooth="yes"/>
      <point x="9" y="824" type="line" smooth="yes"/>
      <point x="9.0" y="793.4029850746268"/>
      <point x="54.65671641791045" y="748.0"/>
      <point x="86" y="748" type="qcurve" smooth="yes"/>
      <point x="137" y="748" type="line" smooth="yes"/>
      <point x="168.34328358208955" y="748.0"/>
      <point x="213.0" y="793.4029850746268"/>
      <point x="213" y="824" type="qcurve" smooth="yes"/>
      <point x="213" y="873" type="line" smooth="yes"/>
      <point x="213.0" y="903.5970149253732"/>
      <point x="168.34328358208955" y="949.0"/>
      <point x="137" y="949" type="qcurve" smooth="yes"/>
    </contour>
    <contour>
      <point x="86" y="871" type="line"/>
      <point x="137" y="871" type="line"/>
      <point x="137" y="817" type="line"/>
      <point x="86" y="817" type="line"/>
    </contour>
  </outline>
</glyph>
<glyph name="tilde" format="2">
  <advance width="403"/>
  <unicode hex="02DC"/>
  <outline>
    <contour>
      <point x="251.2537313432836" y="872.7164179104477"/>
      <point x="170.23880597014926" y="928.0"/>
      <point x="118" y="928" type="qcurve" smooth="yes"/>
      <point x="95.61194029850746" y="928.0"/>
      <point x="45.38805970149254" y="909.955223880597"/>
      <point x="23" y="901" type="qcurve"/>
      <point x="23" y="777" type="line"/>
      <point x="57.32835820895522" y="806.1044776119403"/>
      <point x="95.05970149253731" y="813.0"/>
      <point x="107" y="813" type="qcurve" smooth="yes"/>
      <point x="118" y="813" type="line" smooth="yes"/>
      <point x="163.52238805970148" y="813.0"/>
      <point x="246.01492537313433" y="751.0"/>
      <point x="299" y="751" type="qcurve" smooth="yes"/>
      <point x="324.3731343283582" y="751.0"/>
      <point x="374.86567164179104" y="767.2985074626865"/>
      <point x="398" y="777" type="qcurve"/>
      <point x="398" y="903" type="line"/>
      <point x="364.4179104477612" y="881.3582089552239"/>
      <point x="318.4179104477612" y="866.0"/>
      <point x="302" y="866" type="qcurve"/>
    </contour>
  </outline>
</glyph>
<glyph name="quoteleft" format="2">
  <advance width="240"/>
  <unicode hex="2018"/>
  <outline>
    <contour>
      <point x="187" y="437" type="line"/>
      <point x="187" y="712" type="line"/>
      <point x="122.07462686567165" y="701.5522388059702"/>
      <point x="34.0" y="618.223880597015"/>
      <point x="34" y="563" type="qcurve" smooth="yes"/>
      <point x="34" y="437" type="line"/>
    </contour>
  </outline>
</glyph>
<glyph name="quoteright" format="2">
  <advance width="238"/>
  <unicode hex="2019"/>
  <outline>
    <contour>
      <point x="54" y="706" type="line"/>
      <point x="54" y="432" type="line"/>
      <point x="118.92537313432835" y="443.1940298507463"/>
      <point x="207.0" y="526.5223880597015"/>
      <point x="207" y="581" type="qcurve" smooth="yes"/>
      <point x="207" y="706" type="line"/>
    </contour>
  </outline>
</glyph>
<glyph name="quotedblleft" format="2">
  <advance width="466"/>
  <unicode hex="201C"/>
  <outline>
    <contour>
      <point x="198" y="437" type="line"/>
      <point x="198" y="712" type="line"/>
      <point x="133.82089552238807" y="701.5522388059702"/>
      <point x="45.0" y="618.223880597015"/>
      <point x="45" y="563" type="qcurve" smooth="yes"/>
      <point x="45" y="437" type="line"/>
    </contour>
    <contour>
      <point x="413" y="438" type="line"/>
      <point x="413" y="713" type="line"/>
      <point x="348.07462686567163" y="702.5522388059702"/>
      <point x="260.0" y="619.223880597015"/>
      <point x="260" y="564" type="qcurve" smooth="yes"/>
      <point x="260" y="438" type="line"/>
    </contour>
  </outline>
</glyph>
<glyph name="quotedblright" format="2">
  <advance width="466"/>
  <unicode hex="201D"/>
  <outline>
    <contour>
      <point x="268" y="706" type="line"/>
      <point x="268" y="432" type="line"/>
      <point x="332.92537313432837" y="443.1940298507463"/>
      <point x="422.0" y="526.5223880597015"/>
      <point x="422" y="581" type="qcurve" smooth="yes"/>
      <point x="422" y="706" type="line"/>
    </contour>
    <contour>
      <point x="54" y="706" type="line"/>
      <point x="54" y="432" type="line"/>
      <point x="118.92537313432835" y="443.1940298507463"/>
      <point x="207.0" y="526.5223880597015"/>
      <point x="207" y="581" type="qcurve" smooth="yes"/>
      <point x="207" y="706" type="line"/>
    </contour>
  </outline>
</glyph>
<glyph name="bullet" format="2">
  <advance width="371"/>
  <unicode hex="2022"/>
  <outline>
    <contour>
      <point x="174" y="428" type="line" smooth="yes"/>
      <point x="141.91044776119404" y="428.0"/>
      <point x="108.0" y="394.08955223880594"/>
      <point x="108" y="362" type="qcurve" smooth="yes"/>
      <point x="108" y="344" type="line" smooth="yes"/>
      <point x="108.0" y="311.91044776119406"/>
      <point x="141.91044776119404" y="279.0"/>
      <point x="174" y="279" type="qcurve" smooth="yes"/>
      <point x="195" y="279" type="line" smooth="yes"/>
      <point x="227.83582089552237" y="279.0"/>
      <point x="262.0" y="311.91044776119406"/>
      <point x="262" y="344" type="qcurve" smooth="yes"/>
      <point x="262" y="362" type="line" smooth="yes"/>
      <point x="262.0" y="394.08955223880594"/>
      <point x="227.83582089552237" y="428.0"/>
      <point x="195" y="428" type="qcurve" smooth="yes"/>
    </contour>
  </outline>
</glyph>
<glyph name="Euro" format="2">
  <advance width="799"/>
  <unicode hex="20AC"/>
  <outline>
    <contour>
      <point x="278" y="187" type="line"/>
      <point x="641" y="187" type="line"/>
      <point x="641" y="340" type="line"/>
      <point x="278" y="340" type="line"/>
      <point x="278" y="375" type="line"/>
      <point x="641" y="375" type="line"/>
      <point x="641" y="528" type="line"/>
      <point x="278" y="528" type="line"/>
      <point x="278" y="567" type="line"/>
      <point x="739" y="567" type="line"/>
      <point x="739" y="720" type="line"/>
      <point x="270" y="720" type="line" smooth="yes"/>
      <point x="210.2985074626866" y="720.0"/>
      <point x="125.0" y="634.7014925373135"/>
      <point x="125" y="575" type="qcurve" smooth="yes"/>
      <point x="125" y="528" type="line"/>
      <point x="35" y="528" type="line"/>
      <point x="35" y="375" type="line"/>
      <point x="125" y="375" type="line"/>
      <point x="125" y="340" type="line"/>
      <point x="35" y="340" type="line"/>
      <point x="35" y="187" type="line"/>
      <point x="125" y="187" type="line"/>
      <point x="125" y="145" type="line" smooth="yes"/>
      <point x="125.0" y="86.044776119403"/>
      <point x="210.2985074626866" y="0.0"/>
      <point x="270" y="0" type="qcurve" smooth="yes"/>
      <point x="739" y="0" type="line"/>
      <point x="739" y="153" type="line"/>
      <point x="278" y="153" type="line"/>
    </contour>
  </outline>
</glyph>
<glyph name="A.alt3" format="2">
  <advance width="827"/>
  <outline>
    <contour>
      <point x="876" y="0" type="line"/>
      <point x="491" y="720" type="line"/>
      <point x="358" y="720" type="line"/>
      <point x="-28" y="0" type="line"/>
      <point x="150" y="0" type="line"/>
      <point x="244" y="161" type="line"/>
      <point x="606" y="161" type="line"/>
      <point x="698" y="0" type="line"/>
    </contour>
    <contour>
      <point x="424" y="512" type="line"/>
      <point x="449.3731343283582" y="456.7761194029851"/>
      <point x="493.6268656716418" y="368.4925373134328"/>
      <point x="519" y="317" type="qcurve"/>
      <point x="330" y="317" type="line"/>
    </contour>
  </outline>
</glyph>
<glyph name="C.alt" format="2">
  <advance width="822"/>
  <outline>
    <contour>
      <point x="773" y="599" type="line"/>
      <point x="760.3134328358209" y="649.7462686567164"/>
      <point x="677.7313432835821" y="720.0"/>
      <point x="624" y="720" type="qcurve" smooth="yes"/>
      <point x="200" y="720" type="line" smooth="yes"/>
      <point x="138.80597014925374" y="720.0"/>
      <point x="52.0" y="633.1940298507462"/>
      <point x="52" y="572" type="qcurve" smooth="yes"/>
      <point x="52" y="148" type="line" smooth="yes"/>
      <point x="52.0" y="86.80597014925374"/>
      <point x="138.80597014925374" y="0.0"/>
      <point x="200" y="0" type="qcurve" smooth="yes"/>
      <point x="624" y="0" type="line" smooth="yes"/>
      <point x="678.4776119402985" y="0.0"/>
      <point x="761.044776119403" y="70.50746268656717"/>
      <point x="770" y="122" type="qcurve"/>
      <point x="770" y="255" type="line"/>
      <point x="616" y="255" type="line"/>
      <point x="616" y="156" type="line"/>
      <point x="207" y="156" type="line"/>
      <point x="207" y="564" type="line"/>
      <point x="616" y="564" type="line"/>
      <point x="616" y="465" type="line"/>
      <point x="773" y="465" type="line"/>
    </contour>
  </outline>
</glyph>
<glyph name="J.alt" format="2">
  <advance width="645"/>
  <outline>
    <contour>
      <point x="3" y="0" type="line"/>
      <point x="455" y="0" type="line" smooth="yes"/>
      <point x="515.4477611940298" y="0.0"/>
      <point x="604.0" y="86.80597014925374"/>
      <point x="604" y="148" type="qcurve" smooth="yes"/>
      <point x="604" y="720" type="line"/>
      <point x="447" y="720" type="line"/>
      <point x="447" y="156" type="line"/>
      <point x="3" y="156" type="line"/>
    </contour>
  </outline>
</glyph>
<glyph name="K.alt" format="2">
  <advance width="829"/>
  <outline>
    <contour>
      <point x="209" y="720" type="line"/>
      <point x="54" y="720" type="line"/>
      <point x="54" y="0" type="line"/>
      <point x="209" y="0" type="line"/>
      <point x="209" y="279" type="line"/>
      <point x="617" y="279" type="line"/>
      <point x="617" y="0" type="line"/>
      <point x="774" y="0" type="line"/>
      <point x="774" y="269" type="line" smooth="yes"/>
      <point x="774.0" y="293.6268656716418"/>
      <point x="744.6119402985074" y="340.5820895522388"/>
      <point x="717" y="357" type="qcurve"/>
      <point x="743.8656716417911" y="373.4179104477612"/>
      <point x="775.0" y="421.11940298507466"/>
      <point x="775" y="445" type="qcurve" smooth="yes"/>
      <point x="775" y="720" type="line"/>
      <point x="618" y="720" type="line"/>
      <point x="618" y="435" type="line"/>
      <point x="209" y="435" type="line"/>
    </contour>
  </outline>
</glyph>
<glyph name="N.alt" format="2">
  <advance width="827"/>
  <outline>
    <contour>
      <point x="209" y="0" type="line"/>
      <point x="209" y="564" type="line"/>
      <point x="617" y="564" type="line"/>
      <point x="617" y="0" type="line"/>
      <point x="774" y="0" type="line"/>
      <point x="774" y="572" type="line" smooth="yes"/>
      <point x="774.0" y="633.1940298507462"/>
      <point x="686.4477611940298" y="720.0"/>
      <point x="626" y="720" type="qcurve" smooth="yes"/>
      <point x="54" y="720" type="line"/>
      <point x="54" y="0" type="line"/>
    </contour>
  </outline>
</glyph>
<glyph name="O.alt" format="2">
  <advance width="824"/>
  <outline>
    <contour>
      <point x="200" y="720" type="line" smooth="yes"/>
      <point x="138.80597014925374" y="720.0"/>
      <point x="52.0" y="633.1940298507462"/>
      <point x="52" y="572" type="qcurve" smooth="yes"/>
      <point x="52" y="148" type="line" smooth="yes"/>
      <point x="52.0" y="86.80597014925374"/>
      <point x="138.80597014925374" y="0.0"/>
      <point x="200" y="0" type="qcurve" smooth="yes"/>
      <point x="624" y="0" type="line" smooth="yes"/>
      <point x="684.4477611940298" y="0.0"/>
      <point x="772.0" y="86.80597014925374"/>
      <point x="772" y="148" type="qcurve" smooth="yes"/>
      <point x="772" y="572" type="line" smooth="yes"/>
      <point x="772.0" y="633.1940298507462"/>
      <point x="684.4477611940298" y="720.0"/>
      <point x="624" y="720" type="qcurve" smooth="yes"/>
    </contour>
    <contour>
      <point x="207" y="564" type="line"/>
      <point x="615" y="564" type="line"/>
      <point x="615" y="156" type="line"/>
      <point x="207" y="156" type="line"/>
    </contour>
    <contour>
      <point x="490" y="282" type="line"/>
      <point x="490" y="438" type="line"/>
      <point x="334" y="438" type="line"/>
      <point x="334" y="282" type="line"/>
    </contour>
  </outline>
</glyph>
<glyph name="R.alt" format="2">
  <advance width="826"/>
  <outline>
    <contour>
      <point x="774" y="571" type="line" smooth="yes"/>
      <point x="774.0" y="631.4477611940298"/>
      <point x="686.4477611940298" y="720.0"/>
      <point x="626" y="720" type="qcurve" smooth="yes"/>
      <point x="54" y="721" type="line"/>
      <point x="54" y="0" type="line"/>
      <point x="209" y="0" type="line"/>
      <point x="209" y="237" type="line"/>
      <point x="617" y="237" type="line"/>
      <point x="617" y="0" type="line"/>
      <point x="774" y="0" type="line"/>
      <point x="774" y="245" type="line" smooth="yes"/>
      <point x="774.0" y="269.6268656716418"/>
      <point x="755.6716417910447" y="303.8059701492537"/>
      <point x="740" y="315" type="qcurve"/>
      <point x="754.9253731343283" y="326.1940298507463"/>
      <point x="774.0" y="361.11940298507466"/>
      <point x="774" y="385" type="qcurve" smooth="yes"/>
    </contour>
    <contour>
      <point x="209" y="564" type="line"/>
      <point x="617" y="564" type="line"/>
      <point x="617" y="393" type="line"/>
      <point x="209" y="393" type="line"/>
    </contour>
  </outline>
</glyph>
<glyph name="S.alt" format="2">
  <advance width="812"/>
  <outline>
    <contour>
      <point x="766" y="564" type="line"/>
      <point x="766" y="720" type="line"/>
      <point x="194" y="720" type="line" smooth="yes"/>
      <point x="132.80597014925374" y="720.0"/>
      <point x="46.0" y="633.1940298507462"/>
      <point x="46" y="572" type="qcurve" smooth="yes"/>
      <point x="46" y="430" type="line" smooth="yes"/>
      <point x="46.0" y="368.80597014925377"/>
      <point x="132.80597014925374" y="282.0"/>
      <point x="194" y="282" type="qcurve" smooth="yes"/>
      <point x="610" y="282" type="line"/>
      <point x="610" y="156" type="line"/>
      <point x="46" y="156" type="line"/>
      <point x="46" y="0" type="line"/>
      <point x="618" y="0" type="line" smooth="yes"/>
      <point x="678.4477611940298" y="0.0"/>
      <point x="766.0" y="86.80597014925374"/>
      <point x="766" y="148" type="qcurve" smooth="yes"/>
      <point x="766" y="290" type="line" smooth="yes"/>
      <point x="766.0" y="351.19402985074623"/>
      <point x="678.4477611940298" y="438.0"/>
      <point x="618" y="438" type="qcurve" smooth="yes"/>
      <point x="202" y="438" type="line"/>
      <point x="202" y="564" type="line"/>
    </contour>
  </outline>
</glyph>
<glyph name="V.alt3" format="2">
  <advance width="827"/>
  <outline>
    <contour>
      <point x="616" y="720" type="line"/>
      <point x="616" y="156" type="line"/>
      <point x="208" y="156" type="line"/>
      <point x="208" y="720" type="line"/>
      <point x="53" y="720" type="line"/>
      <point x="53" y="148" type="line" smooth="yes"/>
      <point x="53.0" y="86.80597014925374"/>
      <point x="139.80597014925374" y="0.0"/>
      <point x="201" y="0" type="qcurve" smooth="yes"/>
      <point x="773" y="0" type="line"/>
      <point x="773" y="720" type="line"/>
    </contour>
  </outline>
</glyph>
<glyph name="W.alt" format="2">
  <advance width="1149"/>
  <outline>
    <contour>
      <point x="988" y="720" type="line"/>
      <point x="687" y="359" type="line" smooth="yes"/>
      <point x="662.3731343283582" y="329.14925373134326"/>
      <point x="609.6268656716418" y="266.85074626865674"/>
      <point x="585" y="237" type="qcurve"/>
      <point x="585" y="413" type="line"/>
      <point x="800" y="667" type="line"/>
      <point x="800" y="720" type="line"/>
      <point x="640" y="720" type="line"/>
      <point x="369" y="397" type="line"/>
      <point x="370" y="397" type="line"/>
      <point x="337.1641791044776" y="358.1940298507463"/>
      <point x="269.5820895522388" y="276.55223880597015"/>
      <point x="236" y="237" type="qcurve"/>
      <point x="236" y="720" type="line"/>
      <point x="80" y="720" type="line"/>
      <point x="80" y="0" type="line"/>
      <point x="240" y="0" type="line"/>
      <point x="429" y="225" type="line"/>
      <point x="429" y="0" type="line"/>
      <point x="588" y="0" type="line"/>
      <point x="1149" y="668" type="line"/>
      <point x="1149" y="720" type="line"/>
    </contour>
  </outline>
</glyph>
<glyph name="W.alt4" format="2">
  <advance width="1155"/>
  <outline>
    <contour>
      <point x="1075" y="0" type="line"/>
      <point x="1075" y="720" type="line"/>
      <point x="919" y="720" type="line"/>
      <point x="919" y="156" type="line"/>
      <point x="653" y="156" type="line"/>
      <point x="653" y="720" type="line"/>
      <point x="497" y="720" type="line"/>
      <point x="497" y="156" type="line"/>
      <point x="208" y="156" type="line"/>
      <point x="208" y="720" type="line"/>
      <point x="53" y="720" type="line"/>
      <point x="53" y="148" type="line" smooth="yes"/>
      <point x="53.0" y="86.80597014925374"/>
      <point x="139.80597014925374" y="0.0"/>
      <point x="201" y="0" type="qcurve" smooth="yes"/>
    </contour>
  </outline>
</glyph>
<glyph name="X.alt" format="2">
  <advance width="829"/>
  <outline>
    <contour>
      <point x="618" y="720" type="line"/>
      <point x="618" y="435" type="line"/>
      <point x="209" y="435" type="line"/>
      <point x="209" y="720" type="line"/>
      <point x="54" y="720" type="line"/>
      <point x="54" y="445" type="line" smooth="yes"/>
      <point x="54.0" y="419.6268656716418"/>
      <point x="87.35820895522389" y="371.92537313432837"/>
      <point x="109" y="357" type="qcurve"/>
      <point x="85.11940298507463" y="342.07462686567163"/>
      <point x="55.0" y="295.86567164179104"/>
      <point x="55" y="269" type="qcurve" smooth="yes"/>
      <point x="55" y="0" type="line"/>
      <point x="210" y="0" type="line"/>
      <point x="210" y="279" type="line"/>
      <point x="617" y="279" type="line"/>
      <point x="617" y="0" type="line"/>
      <point x="774" y="0" type="line"/>
      <point x="774" y="269" type="line" smooth="yes"/>
      <point x="774.0" y="297.35820895522386"/>
      <point x="745.8656716417911" y="342.07462686567163"/>
      <point x="719" y="357" type="qcurve"/>
      <point x="744.3731343283582" y="371.92537313432837"/>
      <point x="775.0" y="417.3880597014925"/>
      <point x="775" y="445" type="qcurve" smooth="yes"/>
      <point x="775" y="720" type="line"/>
    </contour>
  </outline>
</glyph>
<glyph name="Y.alt" format="2">
  <advance width="824"/>
  <outline>
    <contour>
      <point x="614" y="720" type="line"/>
      <point x="614" y="438" type="line"/>
      <point x="206" y="438" type="line"/>
      <point x="206" y="720" type="line"/>
      <point x="51" y="720" type="line"/>
      <point x="51" y="430" type="line" smooth="yes"/>
      <point x="51.0" y="368.80597014925377"/>
      <point x="137.80597014925374" y="282.0"/>
      <point x="199" y="282" type="qcurve" smooth="yes"/>
      <point x="614" y="282" type="line"/>
      <point x="614" y="156" type="line"/>
      <point x="51" y="156" type="line"/>
      <point x="51" y="0" type="line"/>
      <point x="623" y="0" type="line" smooth="yes"/>
      <point x="683.4477611940298" y="0.0"/>
      <point x="771.0" y="86.80597014925374"/>
      <point x="771" y="148" type="qcurve" smooth="yes"/>
      <point x="771" y="720" type="line"/>
    </contour>
  </outline>
</glyph>
<glyph name="Z.alt" format="2">
  <advance width="818"/>
  <outline>
    <contour>
      <point x="197" y="438" type="line" smooth="yes"/>
      <point x="135.80597014925374" y="438.0"/>
      <point x="49.0" y="351.19402985074623"/>
      <point x="49" y="290" type="qcurve" smooth="yes"/>
      <point x="49" y="148" type="line" smooth="yes"/>
      <point x="49.0" y="86.80597014925374"/>
      <point x="135.80597014925374" y="0.0"/>
      <point x="197" y="0" type="qcurve" smooth="yes"/>
      <point x="769" y="0" type="line"/>
      <point x="769" y="156" type="line"/>
      <point x="204" y="156" type="line"/>
      <point x="204" y="282" type="line"/>
      <point x="621" y="282" type="line" smooth="yes"/>
      <point x="681.4477611940298" y="282.0"/>
      <point x="769.0" y="368.80597014925377"/>
      <point x="769" y="430" type="qcurve" smooth="yes"/>
      <point x="769" y="572" type="line" smooth="yes"/>
      <point x="769.0" y="633.1940298507462"/>
      <point x="681.4477611940298" y="720.0"/>
      <point x="621" y="720" type="qcurve" smooth="yes"/>
      <point x="49" y="720" type="line"/>
      <point x="49" y="564" type="line"/>
      <point x="612" y="564" type="line"/>
      <point x="612" y="438" type="line"/>
    </contour>
  </outline>
</glyph>
<glyph name="a.sc" format="2">
  <advance width="725"/>
  <outline>
    <contour>
      <point x="199" y="580" type="line" smooth="yes"/>
      <point x="139.2985074626866" y="580.0"/>
      <point x="53.0" y="493.95522388059703"/>
      <point x="53" y="435" type="qcurve" smooth="yes"/>
      <point x="53" y="0" type="line"/>
      <point x="206" y="0" type="line"/>
      <point x="206" y="138" type="line"/>
      <point x="516" y="138" type="line"/>
      <point x="516" y="0" type="line"/>
      <point x="669" y="0" type="line"/>
      <point x="669" y="435" type="line" smooth="yes"/>
      <point x="669.0" y="493.95522388059703"/>
      <point x="583.7014925373135" y="580.0"/>
      <point x="524" y="580" type="qcurve" smooth="yes"/>
    </contour>
    <contour>
      <point x="206" y="291" type="line"/>
      <point x="206" y="427" type="line"/>
      <point x="516" y="427" type="line"/>
      <point x="516" y="291" type="line"/>
    </contour>
  </outline>
</glyph>
<glyph name="b.sc" format="2">
  <advance width="700"/>
  <outline>
    <contour>
      <point x="624" y="435" type="line" smooth="yes"/>
      <point x="624.0" y="494.7014925373134"/>
      <point x="538.7014925373135" y="581.0"/>
      <point x="479" y="581" type="qcurve" smooth="yes"/>
      <point x="54" y="581" type="line"/>
      <point x="54" y="0" type="line"/>
      <point x="507" y="0" type="line" smooth="yes"/>
      <point x="565.955223880597" y="0.0"/>
      <point x="652.0" y="86.044776119403"/>
      <point x="652" y="145" type="qcurve" smooth="yes"/>
      <point x="652" y="219" type="line" smooth="yes"/>
      <point x="652.0" y="245.11940298507463"/>
      <point x="634.6716417910447" y="292.34328358208955"/>
      <point x="619" y="311" type="qcurve"/>
      <point x="621.9850746268656" y="321.44776119402985"/>
      <point x="624.0" y="343.3134328358209"/>
      <point x="624" y="356" type="qcurve" smooth="yes"/>
    </contour>
    <contour>
      <point x="207" y="221" type="line"/>
      <point x="499" y="221" type="line"/>
      <point x="499" y="153" type="line"/>
      <point x="207" y="153" type="line"/>
    </contour>
    <contour>
      <point x="207" y="438" type="line"/>
      <point x="471" y="438" type="line"/>
      <point x="471" y="364" type="line"/>
      <point x="207" y="364" type="line"/>
    </contour>
  </outline>
</glyph>
<glyph name="c.sc" format="2">
  <advance width="693"/>
  <outline>
    <contour>
      <point x="638" y="428" type="line"/>
      <point x="638" y="581" type="line"/>
      <point x="196" y="581" type="line" smooth="yes"/>
      <point x="136.2985074626866" y="581.0"/>
      <point x="51.0" y="494.7014925373134"/>
      <point x="51" y="435" type="qcurve" smooth="yes"/>
      <point x="51" y="145" type="line" smooth="yes"/>
      <point x="51.0" y="86.044776119403"/>
      <point x="136.2985074626866" y="0.0"/>
      <point x="196" y="0" type="qcurve" smooth="yes"/>
      <point x="638" y="0" type="line"/>
      <point x="638" y="153" type="line"/>
      <point x="204" y="153" type="line"/>
      <point x="204" y="428" type="line"/>
    </contour>
  </outline>
</glyph>
<glyph name="d.sc" format="2">
  <advance width="705"/>
  <outline>
    <contour>
      <point x="54" y="581" type="line"/>
      <point x="54" y="0" type="line"/>
      <point x="507" y="0" type="line" smooth="yes"/>
      <point x="565.955223880597" y="0.0"/>
      <point x="652.0" y="86.044776119403"/>
      <point x="652" y="145" type="qcurve" smooth="yes"/>
      <point x="652" y="435" type="line" smooth="yes"/>
      <point x="652.0" y="494.7014925373134"/>
      <point x="565.955223880597" y="581.0"/>
      <point x="507" y="581" type="qcurve" smooth="yes"/>
    </contour>
    <contour>
      <point x="207" y="428" type="line"/>
      <point x="499" y="428" type="line"/>
      <point x="499" y="153" type="line"/>
      <point x="207" y="153" type="line"/>
    </contour>
  </outline>
</glyph>
<glyph name="g.sc" format="2">
  <advance width="690"/>
  <outline>
    <contour>
      <point x="639" y="435" type="line" smooth="yes"/>
      <point x="639.0" y="494.7014925373134"/>
      <point x="553.7014925373135" y="581.0"/>
      <point x="494" y="581" type="qcurve" smooth="yes"/>
      <point x="196" y="581" type="line" smooth="yes"/>
      <point x="137.044776119403" y="581.0"/>
      <point x="51.0" y="494.7014925373134"/>
      <point x="51" y="435" type="qcurve" smooth="yes"/>
      <point x="51" y="145" type="line" smooth="yes"/>
      <point x="51.0" y="86.044776119403"/>
      <point x="137.044776119403" y="0.0"/>
      <point x="196" y="0" type="qcurve" smooth="yes"/>
      <point x="494" y="0" type="line" smooth="yes"/>
      <point x="553.7014925373135" y="0.0"/>
      <point x="639.0" y="86.044776119403"/>
      <point x="639" y="145" type="qcurve" smooth="yes"/>
      <point x="639" y="339" type="line"/>
      <point x="342" y="339" type="line"/>
      <point x="342" y="196" type="line"/>
      <point x="486" y="196" type="line"/>
      <point x="486" y="153" type="line"/>
      <point x="204" y="153" type="line"/>
      <point x="204" y="428" type="line"/>
      <point x="486" y="428" type="line"/>
      <point x="486" y="402" type="line"/>
      <point x="639" y="402" type="line"/>
    </contour>
  </outline>
</glyph>
<glyph name="j.sc" format="2">
  <advance width="657"/>
  <outline>
    <contour>
      <point x="158" y="227" type="line"/>
      <point x="5" y="227" type="line"/>
      <point x="5" y="145" type="line" smooth="yes"/>
      <point x="5.0" y="86.044776119403"/>
      <point x="91.29850746268657" y="0.0"/>
      <point x="151" y="0" type="qcurve" smooth="yes"/>
      <point x="458" y="0" type="line" smooth="yes"/>
      <point x="517.7014925373135" y="0.0"/>
      <point x="603.0" y="86.044776119403"/>
      <point x="603" y="145" type="qcurve" smooth="yes"/>
      <point x="603" y="580" type="line"/>
      <point x="450" y="580" type="line"/>
      <point x="450" y="153" type="line"/>
      <point x="158" y="153" type="line"/>
    </contour>
  </outline>
</glyph>
<glyph name="k.alt" format="2">
  <advance width="669"/>
  <outline>
    <contour>
      <point x="642" y="580" type="line"/>
      <point x="489" y="580" type="line"/>
      <point x="489" y="367" type="line"/>
      <point x="207" y="367" type="line"/>
      <point x="207" y="752" type="line"/>
      <point x="54" y="752" type="line"/>
      <point x="54" y="0" type="line"/>
      <point x="207" y="0" type="line"/>
      <point x="207" y="213" type="line"/>
      <point x="489" y="213" type="line"/>
      <point x="489" y="0" type="line"/>
      <point x="642" y="0" type="line"/>
      <point x="642" y="222" type="line" smooth="yes"/>
      <point x="642.0" y="238.4179104477612"/>
      <point x="623.2089552238806" y="274.32835820895525"/>
      <point x="615" y="290" type="qcurve"/>
      <point x="623.2089552238806" y="305.67164179104475"/>
      <point x="642.0" y="340.8358208955224"/>
      <point x="642" y="358" type="qcurve" smooth="yes"/>
    </contour>
  </outline>
</glyph>
<glyph name="nine.alt" format="2">
  <advance width="784"/>
  <outline>
    <contour>
      <point x="158" y="719" type="line" smooth="yes"/>
      <point x="98.29850746268657" y="719.0"/>
      <point x="12.0" y="632.7014925373135"/>
      <point x="12" y="573" type="qcurve" smooth="yes"/>
      <point x="12" y="425" type="line" smooth="yes"/>
      <point x="12.0" y="365.2985074626866"/>
      <point x="98.29850746268657" y="280.0"/>
      <point x="158" y="280" type="qcurve" smooth="yes"/>
      <point x="566" y="280" type="line"/>
      <point x="566" y="0" type="line"/>
      <point x="719" y="0" type="line"/>
      <point x="719" y="573" type="line" smooth="yes"/>
      <point x="719.0" y="632.7014925373135"/>
      <point x="633.7014925373135" y="719.0"/>
      <point x="574" y="719" type="qcurve" smooth="yes"/>
    </contour>
    <contour>
      <point x="566" y="433" type="line"/>
      <point x="166" y="433" type="line"/>
      <point x="166" y="565" type="line"/>
      <point x="566" y="565" type="line"/>
    </contour>
  </outline>
</glyph>
<glyph name="p.sc" format="2">
  <advance width="660"/>
  <outline>
    <contour>
      <point x="54" y="580" type="line"/>
      <point x="54" y="0" type="line"/>
      <point x="207" y="0" type="line"/>
      <point x="207" y="172" type="line"/>
      <point x="207.7462686567164" y="171.2537313432836"/>
      <point x="210.0" y="171.0"/>
      <point x="210" y="171" type="qcurve"/>
      <point x="210.0" y="173.98507462686567"/>
      <point x="208.49253731343285" y="177.0"/>
      <point x="207" y="177" type="qcurve"/>
      <point x="497" y="178" type="line" smooth="yes"/>
      <point x="556.7014925373135" y="178.0"/>
      <point x="642.0" y="264.04477611940297"/>
      <point x="642" y="323" type="qcurve" smooth="yes"/>
      <point x="642" y="435" type="line" smooth="yes"/>
      <point x="642.0" y="493.2089552238806"/>
      <point x="556.7014925373135" y="580.0"/>
      <point x="497" y="580" type="qcurve" smooth="yes"/>
    </contour>
    <contour>
      <point x="207" y="427" type="line"/>
      <point x="489" y="427" type="line"/>
      <point x="489" y="332" type="line"/>
      <point x="207" y="332" type="line"/>
    </contour>
  </outline>
</glyph>
<glyph name="question.alt" format="2">
  <advance width="667"/>
  <outline>
    <contour>
      <point x="170" y="720" type="line" smooth="yes"/>
      <point x="115.5223880597015" y="720.0"/>
      <point x="34.46268656716418" y="649.7462686567164"/>
      <point x="27" y="599" type="qcurve"/>
      <point x="27" y="469" type="line"/>
      <point x="180" y="469" type="line"/>
      <point x="180" y="567" type="line"/>
      <point x="488" y="567" type="line"/>
      <point x="488" y="417" type="line"/>
      <point x="323" y="417" type="line" smooth="yes"/>
      <point x="264.04477611940297" y="417.0"/>
      <point x="178.0" y="331.7014925373134"/>
      <point x="178" y="272" type="qcurve" smooth="yes"/>
      <point x="178" y="190" type="line"/>
      <point x="332" y="190" type="line"/>
      <point x="332" y="263" type="line"/>
      <point x="496" y="263" type="line" smooth="yes"/>
      <point x="554.955223880597" y="263.0"/>
      <point x="641.0" y="349.2985074626866"/>
      <point x="641" y="409" type="qcurve" smooth="yes"/>
      <point x="641" y="575" type="line" smooth="yes"/>
      <point x="641.0" y="634.7014925373135"/>
      <point x="554.955223880597" y="720.0"/>
      <point x="496" y="720" type="qcurve" smooth="yes"/>
    </contour>
    <contour>
      <point x="332" y="0" type="line"/>
      <point x="332" y="153" type="line"/>
      <point x="178" y="153" type="line"/>
      <point x="178" y="0" type="line"/>
    </contour>
  </outline>
</glyph>
<glyph name="r.sc" format="2">
  <advance width="700"/>
  <outline>
    <contour>
      <point x="643" y="435" type="line" smooth="yes"/>
      <point x="643.0" y="493.2089552238806"/>
      <point x="556.7014925373135" y="580.0"/>
      <point x="497" y="580" type="qcurve" smooth="yes"/>
      <point x="54" y="580" type="line"/>
      <point x="54" y="0" type="line"/>
      <point x="207" y="0" type="line"/>
      <point x="207" y="178" type="line"/>
      <point x="302" y="178" type="line"/>
      <point x="497" y="0" type="line"/>
      <point x="652" y="0" type="line"/>
      <point x="652" y="54" type="line"/>
      <point x="511" y="178" type="line"/>
      <point x="566.223880597015" y="183.22388059701493"/>
      <point x="643.0" y="267.7761194029851"/>
      <point x="643" y="323" type="qcurve" smooth="yes"/>
    </contour>
    <contour>
      <point x="207" y="427" type="line"/>
      <point x="489" y="427" type="line"/>
      <point x="489" y="332" type="line"/>
      <point x="207" y="332" type="line"/>
    </contour>
  </outline>
</glyph>
<glyph name="s.sc" format="2">
  <advance width="687"/>
  <outline>
    <contour>
      <point x="638" y="435" type="line" smooth="yes"/>
      <point x="638.0" y="493.95522388059703"/>
      <point x="551.7014925373135" y="580.0"/>
      <point x="492" y="580" type="qcurve" smooth="yes"/>
      <point x="194" y="580" type="line" smooth="yes"/>
      <point x="135.044776119403" y="580.0"/>
      <point x="49.0" y="493.95522388059703"/>
      <point x="49" y="435" type="qcurve" smooth="yes"/>
      <point x="49" y="358" type="line" smooth="yes"/>
      <point x="49.0" y="299.04477611940297"/>
      <point x="135.044776119403" y="213.0"/>
      <point x="194" y="213" type="qcurve" smooth="yes"/>
      <point x="484" y="213" type="line"/>
      <point x="484" y="153" type="line"/>
      <point x="202" y="153" type="line"/>
      <point x="202" y="173" type="line"/>
      <point x="49" y="173" type="line"/>
      <point x="49" y="145" type="line" smooth="yes"/>
      <point x="49.0" y="86.044776119403"/>
      <point x="135.044776119403" y="0.0"/>
      <point x="194" y="0" type="qcurve" smooth="yes"/>
      <point x="492" y="0" type="line" smooth="yes"/>
      <point x="551.7014925373135" y="0.0"/>
      <point x="638.0" y="86.044776119403"/>
      <point x="638" y="145" type="qcurve" smooth="yes"/>
      <point x="638" y="222" type="line" smooth="yes"/>
      <point x="638.0" y="280.95522388059703"/>
      <point x="551.7014925373135" y="367.0"/>
      <point x="492" y="367" type="qcurve" smooth="yes"/>
      <point x="202" y="367" type="line"/>
      <point x="202" y="427" type="line"/>
      <point x="484" y="427" type="line"/>
      <point x="484" y="407" type="line"/>
      <point x="638" y="407" type="line"/>
    </contour>
  </outline>
</glyph>
<glyph name="two.alt" format="2">
  <advance width="815"/>
  <outline>
    <contour>
      <point x="755" y="453" type="line"/>
      <point x="755" y="600" type="line"/>
      <point x="746.044776119403" y="650.7462686567164"/>
      <point x="664.7313432835821" y="719.0"/>
      <point x="611" y="719" type="qcurve" smooth="yes"/>
      <point x="195" y="719" type="line" smooth="yes"/>
      <point x="135.2985074626866" y="719.0"/>
      <point x="49.0" y="633.7014925373135"/>
      <point x="49" y="574" type="qcurve" smooth="yes"/>
      <point x="49" y="497" type="line"/>
      <point x="203" y="497" type="line"/>
      <point x="203" y="566" type="line"/>
      <point x="601" y="566" type="line"/>
      <point x="601" y="546" type="line"/>
      <point x="49" y="247" type="line"/>
      <point x="50" y="113" type="line"/>
      <point x="61.940298507462686" y="65.23880597014926"/>
      <point x="141.50746268656718" y="0.0"/>
      <point x="193" y="0" type="qcurve" smooth="yes"/>
      <point x="755" y="0" type="line"/>
      <point x="755" y="153" type="line"/>
      <point x="203" y="153" type="line"/>
      <point x="642" y="395" type="line"/>
    </contour>
  </outline>
</glyph>
<glyph name="w.alt" format="2">
  <advance width="978"/>
  <outline>
    <contour>
      <point x="896" y="0" type="line"/>
      <point x="896" y="580" type="line"/>
      <point x="743" y="580" type="line"/>
      <point x="743" y="153" type="line"/>
      <point x="551" y="153" type="line"/>
      <point x="551" y="580" type="line"/>
      <point x="397" y="580" type="line"/>
      <point x="397" y="153" type="line"/>
      <point x="205" y="153" type="line"/>
      <point x="205" y="580" type="line"/>
      <point x="53" y="580" type="line"/>
      <point x="53" y="145" type="line" smooth="yes"/>
      <point x="53.0" y="86.044776119403"/>
      <point x="139.2985074626866" y="0.0"/>
      <point x="199" y="0" type="qcurve" smooth="yes"/>
    </contour>
  </outline>
</glyph>
<glyph name="w.sc" format="2">
  <advance width="1078"/>
  <outline>
    <contour>
      <point x="864" y="580" type="line"/>
      <point x="834.8955223880597" y="506.11940298507466"/>
      <point x="773.8507462686567" y="349.6268656716418"/>
      <point x="744" y="275" type="qcurve"/>
      <point x="600" y="580" type="line"/>
      <point x="460" y="580" type="line"/>
      <point x="325" y="276" type="line"/>
      <point x="196" y="580" type="line"/>
      <point x="34" y="580" type="line"/>
      <point x="266" y="0" type="line"/>
      <point x="381" y="0" type="line"/>
      <point x="400.4029850746269" y="42.537313432835816"/>
      <point x="444.5970149253731" y="143.97014925373134"/>
      <point x="464" y="188" type="qcurve" smooth="yes"/>
      <point x="531" y="339" type="line"/>
      <point x="688" y="0" type="line"/>
      <point x="804" y="0" type="line"/>
      <point x="1027" y="580" type="line"/>
    </contour>
  </outline>
</glyph>
